<svg width="319" height="318" viewBox="0 0 319 318" fill="none" xmlns="http://www.w3.org/2000/svg">
<path d="M318.006 280.608H318.008V273.611H314.835C300.112 256.903 235.993 244.328 159.124 244.328C82.255 244.328 18.137 256.903 3.413 273.611H0.238998V280.707C0.236998 280.782 0.233002 280.858 0.233002 280.933C0.233002 301.149 71.371 317.538 159.124 317.538C246.877 317.538 318.015 301.149 318.015 280.933C318.015 280.824 318.01 280.716 318.006 280.608Z" fill="#E2A861"/>
<path d="M159.123 310.54C246.876 310.54 318.014 294.151 318.014 273.935C318.014 253.719 246.876 237.33 159.123 237.33C71.3699 237.33 0.231995 253.719 0.231995 273.935C0.231995 294.151 71.3699 310.54 159.123 310.54Z" fill="#FDCE8F"/>
<path d="M302.632 269.561L302.633 263.561H299.767C286.468 249.234 228.554 238.452 159.123 238.452C89.692 238.452 31.777 249.235 18.479 263.561H15.612V269.645C15.61 269.71 15.606 269.774 15.606 269.839C15.606 287.174 79.861 301.227 159.123 301.227C238.385 301.227 302.64 287.174 302.64 269.839C302.64 269.746 302.636 269.653 302.632 269.561Z" fill="#5AA2AB"/>
<path d="M159.123 295.227C238.385 295.227 302.64 281.174 302.64 263.839C302.64 246.504 238.385 232.451 159.123 232.451C79.8607 232.451 15.606 246.504 15.606 263.839C15.606 281.174 79.8607 295.227 159.123 295.227Z" fill="#80BDC8"/>
<path d="M40 261.019C42.7029 261.019 44.894 258.828 44.894 256.125C44.894 253.422 42.7029 251.231 40 251.231C37.2971 251.231 35.106 253.422 35.106 256.125C35.106 258.828 37.2971 261.019 40 261.019Z" fill="#FF4F96"/>
<path d="M39.265 253.994C39.265 254.485 38.867 254.882 38.377 254.882C37.887 254.882 37.489 254.485 37.489 253.994C37.489 253.504 37.887 253.106 38.377 253.106C38.867 253.106 39.265 253.504 39.265 253.994Z" fill="white"/>
<path d="M278.672 261.019C281.375 261.019 283.566 258.828 283.566 256.125C283.566 253.422 281.375 251.231 278.672 251.231C275.969 251.231 273.778 253.422 273.778 256.125C273.778 258.828 275.969 261.019 278.672 261.019Z" fill="#FF5299"/>
<path d="M277.937 253.994C277.937 254.485 277.539 254.882 277.049 254.882C276.559 254.882 276.161 254.485 276.161 253.994C276.161 253.504 276.559 253.106 277.049 253.106C277.539 253.106 277.937 253.504 277.937 253.994Z" fill="white"/>
<path d="M44.382 137.476C60.291 146.802 51.037 155.44 68.593 159.717" stroke="#64AAAD" stroke-width="0.25" stroke-miterlimit="10" stroke-linecap="round"/>
<path d="M39.282 108.769C33.155 102.291 22.936 102.006 16.458 108.133C9.97901 114.26 9.69501 124.479 15.822 130.957C24.233 139.851 36.936 139.781 42.037 138.181C42.038 138.418 42.125 138.654 42.3 138.84C42.667 139.228 43.279 139.245 43.667 138.878L45.64 137.012C46.028 136.645 46.045 136.033 45.678 135.645C45.49 135.446 45.237 135.345 44.984 135.343C46.746 130.229 47.154 117.093 39.282 108.769Z" fill="#80BDC8"/>
<path d="M44.983 135.344C46.745 130.229 47.154 117.093 39.281 108.769C33.154 102.291 22.935 102.006 16.457 108.133C15.29 109.237 14.324 110.475 13.56 111.799C14.049 111.176 14.589 110.581 15.182 110.02C21.661 103.893 31.879 104.178 38.006 110.656C45.878 118.98 45.47 132.116 43.708 137.231C43.962 137.233 44.214 137.334 44.402 137.533C44.52 137.658 44.598 137.805 44.637 137.961L45.639 137.014C46.027 136.647 46.044 136.035 45.677 135.647C45.49 135.447 45.237 135.346 44.983 135.344Z" fill="#68A0A8"/>
<path d="M18.458 118.962C19.046 119.483 19.101 120.383 18.58 120.971C18.059 121.559 17.159 121.614 16.571 121.093C15.983 120.572 15.928 119.672 16.449 119.084C16.97 118.495 17.869 118.441 18.458 118.962Z" fill="#D9F3F9"/>
<path d="M277.764 134.653C273.586 141.794 250.369 135.34 244.021 145.23" stroke="#64AAAD" stroke-width="0.25" stroke-miterlimit="10" stroke-linecap="round"/>
<path d="M304.3 128.943C310.121 123.025 310.043 113.508 304.125 107.687C298.207 101.866 288.69 101.944 282.869 107.862C274.878 115.986 275.369 127.802 277.029 132.494C276.809 132.503 276.591 132.592 276.425 132.761C276.076 133.115 276.081 133.685 276.435 134.034L278.237 135.806C278.591 136.155 279.161 136.15 279.51 135.796C279.689 135.614 279.774 135.376 279.768 135.14C284.586 136.608 296.821 136.546 304.3 128.943Z" fill="#FF759B"/>
<path d="M304.125 107.687C303.117 106.695 302.003 105.875 300.822 105.225C301.367 105.631 301.891 106.079 302.389 106.569C308.307 112.39 308.385 121.907 302.564 127.825C295.085 135.429 282.85 135.49 278.032 134.023C278.038 134.259 277.953 134.497 277.775 134.679C277.651 134.805 277.499 134.886 277.339 134.923L278.238 135.807C278.592 136.156 279.162 136.151 279.511 135.797C279.69 135.615 279.775 135.377 279.769 135.141C284.587 136.608 296.822 136.547 304.301 128.943C310.121 123.025 310.043 113.508 304.125 107.687Z" fill="#FF6694"/>
<path d="M294.117 109.911C293.652 110.476 292.817 110.557 292.252 110.092C291.687 109.627 291.606 108.792 292.071 108.227C292.536 107.662 293.371 107.581 293.936 108.046C294.501 108.512 294.582 109.347 294.117 109.911Z" fill="#D9F3F9"/>
<path d="M223.591 143.652L218.811 148.025L214.591 147.857L219.371 143.483L223.591 143.652Z" fill="#80BDC8"/>
<path d="M228.349 139.299L223.568 143.673L219.348 143.504L224.129 139.131L228.349 139.299Z" fill="#FF759B"/>
<path d="M233.102 134.951L228.322 139.324L224.102 139.156L228.883 134.783L233.102 134.951Z" fill="#80BDC8"/>
<path d="M237.86 130.599L233.079 134.972L228.86 134.804L233.64 130.43L237.86 130.599Z" fill="#FF759B"/>
<path d="M242.591 126.271L237.81 130.644L233.59 130.476L238.371 126.103L242.591 126.271Z" fill="#80BDC8"/>
<path d="M247.348 121.919L242.568 126.292L238.348 126.124L243.128 121.751L247.348 121.919Z" fill="#FF759B"/>
<path d="M252.102 117.57L247.321 121.943L243.101 121.775L247.882 117.402L252.102 117.57Z" fill="#80BDC8"/>
<path d="M256.859 113.218L252.079 117.591L247.859 117.423L252.639 113.05L256.859 113.218Z" fill="#FF759B"/>
<path d="M261.605 108.876L256.825 113.25L252.605 113.081L257.385 108.708L261.605 108.876Z" fill="#80BDC8"/>
<path d="M266.363 104.524L261.582 108.897L257.362 108.729L262.143 104.356L266.363 104.524Z" fill="#FF759B"/>
<path d="M271.117 100.175L266.336 104.549L262.116 104.38L266.897 100.007L271.117 100.175Z" fill="#80BDC8"/>
<path d="M275.874 95.823L271.094 100.197L266.874 100.028L271.654 95.655L275.874 95.823Z" fill="#FF759B"/>
<path d="M280.605 91.496L275.824 95.869L271.604 95.701L276.385 91.327L280.605 91.496Z" fill="#80BDC8"/>
<path d="M285.362 87.143L280.582 91.517L276.362 91.348L281.142 86.975L285.362 87.143Z" fill="#FF759B"/>
<path d="M290.116 82.795L285.335 87.168L281.115 87L285.896 82.626L290.116 82.795Z" fill="#80BDC8"/>
<path d="M294.874 78.443L290.093 82.816L285.873 82.648L290.654 78.274L294.874 78.443Z" fill="#FF759B"/>
<path d="M295.306 68.729C297.869 71.531 297.675 75.879 294.874 78.442C292.072 81.005 287.724 80.811 285.161 78.01C282.598 75.208 282.792 70.86 285.593 68.297C288.394 65.734 292.743 65.928 295.306 68.729Z" fill="#80BDC8"/>
<path d="M293.579 70.309C295.269 72.157 295.142 75.025 293.294 76.716C291.446 78.407 288.578 78.279 286.887 76.431C285.197 74.583 285.324 71.715 287.172 70.024C289.02 68.334 291.888 68.461 293.579 70.309Z" fill="#FF759B"/>
<path d="M292.042 71.715C292.956 72.714 292.887 74.264 291.888 75.178C290.889 76.092 289.339 76.023 288.425 75.024C287.511 74.025 287.58 72.475 288.579 71.561C289.577 70.648 291.128 70.717 292.042 71.715Z" fill="#80BDC8"/>
<path d="M291.165 72.517C291.636 73.032 291.601 73.831 291.086 74.302C290.571 74.773 289.772 74.738 289.3 74.223C288.828 73.708 288.865 72.909 289.38 72.438C289.895 71.966 290.694 72.002 291.165 72.517Z" fill="#FF759B"/>
<path d="M94.452 143.652L99.232 148.025L103.452 147.857L98.672 143.483L94.452 143.652Z" fill="#80BDC8"/>
<path d="M89.694 139.299L94.475 143.673L98.695 143.504L93.914 139.131L89.694 139.299Z" fill="#FF759B"/>
<path d="M84.941 134.951L89.721 139.324L93.941 139.156L89.16 134.783L84.941 134.951Z" fill="#80BDC8"/>
<path d="M80.183 130.599L84.964 134.972L89.184 134.804L84.403 130.43L80.183 130.599Z" fill="#FF759B"/>
<path d="M75.452 126.271L80.233 130.644L84.453 130.476L79.672 126.103L75.452 126.271Z" fill="#80BDC8"/>
<path d="M70.695 121.919L75.476 126.292L79.695 126.124L74.915 121.751L70.695 121.919Z" fill="#FF759B"/>
<path d="M65.941 117.57L70.722 121.943L74.942 121.775L70.161 117.402L65.941 117.57Z" fill="#80BDC8"/>
<path d="M61.184 113.218L65.964 117.591L70.184 117.423L65.404 113.05L61.184 113.218Z" fill="#FF759B"/>
<path d="M56.438 108.876L61.218 113.25L65.438 113.081L60.658 108.708L56.438 108.876Z" fill="#80BDC8"/>
<path d="M51.68 104.524L56.461 108.897L60.681 108.729L55.9 104.356L51.68 104.524Z" fill="#FF759B"/>
<path d="M46.927 100.175L51.707 104.549L55.927 104.38L51.146 100.007L46.927 100.175Z" fill="#80BDC8"/>
<path d="M42.169 95.823L46.95 100.197L51.169 100.028L46.389 95.655L42.169 95.823Z" fill="#FF759B"/>
<path d="M37.438 91.496L42.219 95.869L46.439 95.701L41.658 91.327L37.438 91.496Z" fill="#80BDC8"/>
<path d="M32.681 87.143L37.462 91.517L41.681 91.348L36.901 86.975L32.681 87.143Z" fill="#FF759B"/>
<path d="M27.927 82.795L32.708 87.168L36.928 87L32.147 82.626L27.927 82.795Z" fill="#80BDC8"/>
<path d="M23.17 78.443L27.95 82.816L32.17 82.648L27.39 78.274L23.17 78.443Z" fill="#FF759B"/>
<path d="M22.738 68.729C20.175 71.531 20.369 75.879 23.17 78.442C25.971 81.005 30.32 80.811 32.883 78.01C35.446 75.208 35.252 70.86 32.451 68.297C29.649 65.734 25.3 65.928 22.738 68.729Z" fill="#80BDC8"/>
<path d="M24.464 70.309C22.774 72.157 22.901 75.025 24.749 76.716C26.597 78.407 29.465 78.279 31.156 76.431C32.846 74.583 32.719 71.715 30.871 70.024C29.023 68.334 26.155 68.461 24.464 70.309Z" fill="#FF759B"/>
<path d="M26.002 71.715C25.088 72.714 25.157 74.264 26.156 75.178C27.155 76.092 28.705 76.023 29.619 75.024C30.533 74.025 30.464 72.475 29.465 71.561C28.466 70.648 26.915 70.717 26.002 71.715Z" fill="#80BDC8"/>
<path d="M26.878 72.517C26.407 73.032 26.442 73.831 26.957 74.302C27.472 74.773 28.271 74.738 28.742 74.223C29.213 73.708 29.178 72.909 28.663 72.438C28.148 71.966 27.349 72.002 26.878 72.517Z" fill="#FF759B"/>
<path d="M68.422 105.175L64.127 109.54L61.369 107.998L66.907 103.947L68.422 105.175Z" fill="#FF759B"/>
<path d="M68.796 14.218L69.023 20.337L66.009 21.285L66.864 14.477L68.796 14.218Z" fill="#FF759B"/>
<path d="M45.81 139.042L48.638 144.474L46.321 146.622L44.175 140.104L45.81 139.042Z" fill="#FF759B"/>
<path d="M19.984 173.055L25.335 172.613L25.25 174.035L20.331 174.974L19.984 173.055Z" fill="#FF759B"/>
<path d="M266.434 168.071L269.262 173.503L266.945 175.651L264.799 169.134L266.434 168.071Z" fill="#FF759B"/>
<path d="M292.309 141.533L297.984 139.234L299.903 141.744L293.211 143.262L292.309 141.533Z" fill="#FF759B"/>
<path d="M261.767 60.446L266.653 64.138L265.482 67.073L260.747 62.108L261.767 60.446Z" fill="#FF759B"/>
<path d="M243.779 109.822L246.681 106.442L249.837 106.285L245.715 110.059L243.779 109.822Z" fill="#FF759B"/>
<path d="M45.406 178.303L41.653 182.018L41.442 179.921L44.675 177.816L45.406 178.303Z" fill="#FF759B"/>
<path d="M308.615 95.021L299.448 99.07L296.87 93.234L307.74 90.413L308.615 95.021Z" fill="#80BDC8"/>
<path d="M289.241 35.319L286.463 43.186L283.784 42.24L287.617 33.809L289.241 35.319Z" fill="#80BDC8"/>
<path d="M47.318 19.976L45.199 29.771L38.965 28.422L43.077 17.973L47.318 19.976Z" fill="#80BDC8"/>
<path d="M57.011 82.817L48.927 80.103L54.015 77.673L59.104 79.419L57.011 82.817Z" fill="#80BDC8"/>
<path d="M20.871 147.653L13.688 151.305L11.31 146.425L19.98 145.888L20.871 147.653Z" fill="#80BDC8"/>
<path d="M273.346 144.934L273.594 151.189L269.528 150.399L271.407 143.996L273.346 144.934Z" fill="#80BDC8"/>
<path d="M290.943 175.12L287.671 172.738L289.457 169.785L294.215 172.298L290.943 175.12Z" fill="#80BDC8"/>
<path d="M250.405 86.154L246.955 84.303L248.247 82.82L253.133 84.954L250.405 86.154Z" fill="#80BDC8"/>
<path d="M294.469 201.817L292.833 198.323L294.619 195.371L297.742 198.995L294.469 201.817Z" fill="#80BDC8"/>
<path d="M264.2 7.071L262.564 3.577L264.35 0.623993L267.473 4.24899L264.2 7.071Z" fill="#80BDC8"/>
<path d="M45.166 165.005L38.305 166.779L37.422 163.443L45.409 160.691L45.166 165.005Z" fill="#80BDC8"/>
<path d="M27.208 190.412L31.996 195.635L27.856 195.096L23.501 191.038L27.208 190.412Z" fill="#80BDC8"/>
<path d="M238.42 194.221H37.875V259.462C37.875 259.481 37.877 259.5 37.878 259.519C37.877 259.544 37.875 259.568 37.875 259.592C37.875 271.133 92.16 280.489 159.124 280.489C189.443 280.489 217.162 278.571 238.421 275.401L238.42 194.221Z" fill="#FDCE8E"/>
<path d="M238.42 275.401C264.115 271.569 280.371 265.908 280.371 259.592C280.371 259.568 280.369 259.543 280.368 259.519C280.369 259.5 280.371 259.481 280.371 259.461V194.22H238.42V275.401Z" fill="#F4BA7A"/>
<path d="M187.381 242.728L180.198 244.773C179.824 244.879 179.436 244.663 179.329 244.289C179.223 243.915 179.439 243.527 179.813 243.42L186.996 241.375C187.37 241.269 187.758 241.485 187.865 241.859C187.971 242.233 187.754 242.622 187.381 242.728Z" fill="#859393"/>
<path d="M215.974 266.634L209.985 262.171C209.674 261.939 209.609 261.498 209.841 261.187C210.073 260.876 210.514 260.811 210.825 261.043L216.813 265.506C217.124 265.738 217.189 266.179 216.957 266.49C216.726 266.802 216.286 266.866 215.974 266.634Z" fill="#859393"/>
<path d="M179.134 268.267H171.665C171.277 268.267 170.962 267.952 170.962 267.564C170.962 267.176 171.277 266.861 171.665 266.861H179.134C179.522 266.861 179.837 267.176 179.837 267.564C179.838 267.953 179.523 268.267 179.134 268.267Z" fill="#859393"/>
<path d="M152.765 266.281L147.23 271.295C146.942 271.556 146.498 271.534 146.237 271.246C145.976 270.958 145.998 270.513 146.286 270.253L151.821 265.239C152.109 264.978 152.553 265 152.814 265.288C153.074 265.576 153.052 266.02 152.765 266.281Z" fill="#859393"/>
<path d="M128.263 265.251L122.982 259.97C122.707 259.695 122.707 259.25 122.982 258.976C123.257 258.701 123.702 258.701 123.976 258.976L129.257 264.257C129.532 264.532 129.532 264.977 129.257 265.251C128.983 265.525 128.538 265.525 128.263 265.251Z" fill="#859393"/>
<path d="M125.609 232.957L118.426 235.002C118.053 235.108 117.664 234.892 117.557 234.518C117.451 234.145 117.667 233.756 118.041 233.649L125.224 231.604C125.598 231.498 125.986 231.714 126.093 232.088C126.199 232.462 125.982 232.851 125.609 232.957Z" fill="#859393"/>
<path d="M85.585 229.358L78.86 232.608C78.51 232.777 78.09 232.63 77.921 232.281C77.752 231.931 77.899 231.511 78.248 231.342L84.973 228.092C85.323 227.923 85.743 228.07 85.912 228.419C86.081 228.768 85.935 229.189 85.585 229.358Z" fill="#859393"/>
<path d="M43.635 252.616L47.729 258.863C47.942 259.188 47.851 259.624 47.526 259.836C47.201 260.049 46.765 259.958 46.552 259.633L42.458 253.386C42.245 253.061 42.336 252.625 42.661 252.412C42.986 252.2 43.422 252.291 43.635 252.616Z" fill="#859393"/>
<path d="M53.248 235.415L52.036 242.785C51.973 243.168 51.611 243.428 51.228 243.365C50.845 243.302 50.585 242.94 50.648 242.557L51.86 235.187C51.923 234.804 52.285 234.544 52.668 234.607C53.051 234.67 53.311 235.032 53.248 235.415Z" fill="#859393"/>
<path d="M76.293 262.529L68.846 263.099C68.459 263.129 68.121 262.839 68.091 262.451C68.061 262.064 68.351 261.726 68.738 261.696L76.185 261.127C76.572 261.097 76.91 261.387 76.94 261.774C76.97 262.162 76.68 262.5 76.293 262.529Z" fill="#859393"/>
<path d="M86.143 250.141L80.862 244.86C80.587 244.585 80.587 244.14 80.862 243.866C81.137 243.591 81.582 243.591 81.856 243.866L87.137 249.147C87.412 249.422 87.412 249.867 87.137 250.141C86.863 250.415 86.417 250.415 86.143 250.141Z" fill="#859393"/>
<path d="M207.496 236.575L201.508 232.112C201.197 231.88 201.132 231.439 201.364 231.128C201.596 230.817 202.037 230.752 202.348 230.984L208.337 235.447C208.648 235.679 208.713 236.12 208.481 236.431C208.248 236.743 207.807 236.807 207.496 236.575Z" fill="#859393"/>
<path d="M256.18 265.475L248.96 263.562C248.585 263.463 248.361 263.078 248.46 262.702C248.56 262.327 248.944 262.103 249.32 262.202L256.54 264.114C256.915 264.213 257.139 264.598 257.04 264.974C256.94 265.35 256.555 265.574 256.18 265.475Z" fill="#859393"/>
<path d="M256.05 233.287L248.706 234.649C248.324 234.72 247.957 234.468 247.887 234.086C247.816 233.704 248.068 233.337 248.45 233.266L255.794 231.904C256.176 231.833 256.543 232.085 256.614 232.467C256.684 232.849 256.432 233.216 256.05 233.287Z" fill="#859393"/>
<path d="M275.86 245.447L269.658 241.285C269.336 241.069 269.25 240.632 269.466 240.309C269.682 239.986 270.119 239.9 270.442 240.117L276.644 244.278C276.967 244.494 277.053 244.931 276.836 245.254C276.619 245.577 276.183 245.663 275.86 245.447Z" fill="#859393"/>
<path d="M262.323 250.419L255.14 252.464C254.767 252.57 254.378 252.354 254.271 251.98C254.165 251.606 254.381 251.218 254.755 251.111L261.938 249.066C262.311 248.96 262.7 249.176 262.807 249.55C262.913 249.924 262.696 250.313 262.323 250.419Z" fill="#859393"/>
<path d="M280.372 195.221H38.247C38.247 195.221 39.875 213.509 38.247 226.925C38.041 228.625 37.923 230.158 37.875 231.521V234.254C38.15 241.112 40.555 241.508 40.75 235.008C41 226.675 46.917 212.091 46.917 223.925C46.917 235.758 54.11 233.613 55.5 220.175C56.273 212.701 60.579 216.087 61.917 225.092C62.742 230.645 61.569 238.918 62.75 247.425C63.925 255.887 69.917 256.425 70.667 245.342C71.043 239.789 71.499 230.015 72.25 224.759C74.75 207.259 97.625 217.967 96.846 245.927C96.044 274.697 107.739 275.16 109.073 252.327C108.406 207.494 135.626 221.842 138.126 233.342C140.626 244.842 134.876 257.03 141.439 256.905C147.818 256.784 138.323 231.84 150.814 231.342C157.326 231.083 159.918 242.592 159.668 253.759C159.418 264.926 166.876 269.342 168.751 242.342C170.626 215.342 224.668 216.175 224.751 236.592C224.876 267.166 237.251 263.717 236.376 240.342C235.501 216.967 267.163 213.745 266.376 224.592C265.188 240.967 271.376 243.342 271.251 227.967C271.126 212.592 277.855 212.988 279.189 216.779C280.385 220.179 278.331 232.257 280.373 234.669L280.372 195.221Z" fill="#E8A658"/>
<path d="M282 224.092C282 218.092 282 194.221 282 194.221C282 182.525 226.986 173.044 159.123 173.044C91.26 173.044 36.246 182.525 36.246 194.221C36.246 194.417 36.264 194.612 36.295 194.806C36.552 198.006 37.704 213.913 36.246 225.926C34.618 239.343 38.499 242.343 38.749 234.009C38.999 225.676 44.916 211.092 44.916 222.926C44.916 234.759 52.109 232.614 53.499 219.176C54.272 211.702 58.578 215.088 59.916 224.093C60.741 229.646 59.568 237.919 60.749 246.426C61.924 254.888 67.916 255.426 68.666 244.343C69.042 238.79 69.498 229.016 70.249 223.76C72.749 206.26 95.624 216.968 94.845 244.928C94.043 273.698 105.738 274.161 107.072 251.328C106.405 206.495 133.625 220.843 136.125 232.343C138.625 243.843 132.875 256.031 139.438 255.906C145.817 255.785 136.322 230.841 148.813 230.343C155.325 230.084 157.917 241.593 157.667 252.76C157.417 263.927 164.875 268.343 166.75 241.343C168.625 214.343 222.667 215.176 222.75 235.593C222.875 266.167 235.25 262.718 234.375 239.343C233.5 215.968 265.162 212.746 264.375 223.593C263.187 239.968 269.375 242.343 269.25 226.968C269.125 211.593 275.854 211.989 277.188 215.78C278.521 219.572 275.813 234.155 279.251 234.093C281.191 234.057 282.667 229.926 282 224.092Z" fill="#FF759B"/>
<path d="M96.875 250.384C97.028 252.949 97.39 255.517 98.053 257.976C98.381 259.205 98.789 260.412 99.349 261.52C99.9 262.624 100.585 263.662 101.472 264.378L101.481 264.385C101.792 264.636 101.84 265.091 101.589 265.402C101.338 265.713 100.882 265.761 100.572 265.51C100.557 265.498 100.542 265.485 100.528 265.472C99.467 264.464 98.81 263.226 98.302 261.987C97.791 260.741 97.468 259.454 97.227 258.165C96.742 255.584 96.58 252.981 96.625 250.383C96.626 250.314 96.683 250.259 96.752 250.26C96.818 250.261 96.871 250.313 96.875 250.377V250.384Z" fill="#FFBBD0"/>
<path d="M64.608 250.671C64.12 250.669 63.586 250.516 63.264 250.211C62.909 249.934 62.681 249.601 62.498 249.278C62.141 248.624 61.929 247.964 61.783 247.308C61.481 245.995 61.369 244.69 61.3 243.39C61.192 240.791 61.302 238.211 61.5 235.643C61.511 235.505 61.631 235.402 61.769 235.413C61.902 235.423 62.002 235.536 62 235.667C61.954 238.228 61.998 240.792 62.253 243.317C62.393 244.574 62.581 245.83 62.926 247.003C63.09 247.591 63.321 248.151 63.607 248.606C63.903 249.081 64.253 249.297 64.517 249.263C64.904 249.211 65.26 249.483 65.311 249.87C65.363 250.257 65.091 250.613 64.704 250.664C64.675 250.669 64.637 250.671 64.608 250.671Z" fill="#FFBBD0"/>
<path d="M48.182 229.685C47.781 229.736 47.323 229.589 47.042 229.328C46.745 229.076 46.579 228.774 46.432 228.483C46.161 227.891 46.018 227.292 45.916 226.696C45.714 225.503 45.671 224.316 45.656 223.132C45.654 222.994 45.765 222.88 45.903 222.879C46.036 222.877 46.147 222.984 46.156 223.116C46.233 224.279 46.341 225.446 46.593 226.561C46.717 227.116 46.887 227.662 47.132 228.127C47.384 228.605 47.727 228.897 48.069 228.813C48.306 228.755 48.545 228.9 48.603 229.137C48.661 229.374 48.516 229.613 48.279 229.671C48.263 229.675 48.247 229.678 48.231 229.68L48.182 229.685Z" fill="#FFBBD0"/>
<path d="M36.837 237.274C36.521 235.962 36.403 234.652 36.34 233.332C36.29 232.014 36.32 230.695 36.425 229.383C36.429 229.333 36.473 229.296 36.523 229.3C36.572 229.304 36.609 229.346 36.606 229.395C36.539 230.702 36.545 232.013 36.632 233.316C36.729 234.613 36.89 235.927 37.225 237.16L37.229 237.174C37.258 237.282 37.194 237.393 37.087 237.422C36.979 237.451 36.868 237.388 36.839 237.28C36.838 237.278 36.838 237.276 36.837 237.274Z" fill="#FFBBD0"/>
<path d="M113.298 221.494C114.86 220.249 116.689 219.358 118.636 218.861C120.58 218.375 122.658 218.283 124.634 218.734C125.135 218.808 125.601 219.023 126.086 219.161C126.325 219.241 126.567 219.313 126.803 219.401L127.481 219.733C127.926 219.966 128.399 220.152 128.82 220.424L130.058 221.278C130.484 221.544 130.844 221.893 131.211 222.23L132.312 223.238C132.97 223.982 133.6 224.749 134.223 225.514C134.266 225.567 134.258 225.646 134.205 225.689C134.156 225.729 134.084 225.725 134.039 225.682L134.028 225.671C133.324 224.986 132.668 224.264 131.967 223.592L130.847 222.663C130.476 222.352 130.113 222.03 129.69 221.794C128.116 220.672 126.33 219.899 124.475 219.47C122.615 219.014 120.659 219.094 118.784 219.486C118.314 219.584 117.854 219.728 117.386 219.847C116.936 220.017 116.471 220.157 116.029 220.354C115.129 220.707 114.265 221.171 113.453 221.69L113.443 221.696C113.385 221.733 113.308 221.716 113.271 221.658C113.236 221.605 113.248 221.533 113.298 221.494Z" fill="#FFBBD0"/>
<path d="M138.891 255.129C138.464 255.134 138.151 254.88 137.951 254.65C137.769 254.409 137.65 254.163 137.551 253.918C137.372 253.429 137.278 252.943 137.208 252.459C137.074 251.492 137.058 250.534 137.072 249.581C137.112 247.675 137.305 245.789 137.565 243.916C137.584 243.779 137.71 243.684 137.847 243.703C137.981 243.722 138.076 243.844 138.061 243.977C137.862 245.844 137.73 247.719 137.75 249.582C137.765 250.511 137.812 251.443 137.966 252.34C138.044 252.786 138.148 253.226 138.306 253.618C138.39 253.808 138.486 253.982 138.592 254.116C138.706 254.228 138.798 254.278 138.861 254.274C139.097 254.259 139.3 254.438 139.315 254.674C139.33 254.91 139.151 255.113 138.915 255.128C138.906 255.128 138.898 255.129 138.891 255.129Z" fill="#FFBBD0"/>
<path d="M160.288 259.21C159.898 258.564 159.777 257.84 159.668 257.14C159.563 256.434 159.495 255.727 159.439 255.021C159.337 253.608 159.29 252.197 159.224 250.789C159.089 247.975 159.004 245.166 158.659 242.392C158.328 239.63 157.864 236.847 156.746 234.348C156.199 233.104 155.465 231.936 154.464 231.052C153.484 230.141 152.208 229.59 150.852 229.403C150.715 229.384 150.619 229.258 150.638 229.121C150.656 228.993 150.772 228.901 150.898 228.905C152.354 228.958 153.819 229.507 154.973 230.448C156.126 231.396 156.967 232.647 157.598 233.954C158.83 236.603 159.321 239.465 159.636 242.284C159.905 245.117 159.993 247.951 159.978 250.773L159.981 254.997C159.985 255.699 160.001 256.4 160.053 257.095C160.111 257.784 160.177 258.497 160.462 259.098L160.469 259.112C160.493 259.163 160.472 259.224 160.42 259.249C160.372 259.273 160.315 259.255 160.288 259.21Z" fill="#FFBBD0"/>
<path d="M226.91 254.026C225.988 251.743 225.4 249.345 225.088 246.938C224.768 244.529 224.711 242.12 224.641 239.741C224.568 237.365 224.478 234.998 223.974 232.711C223.486 230.428 222.503 228.25 220.998 226.44C220.91 226.334 220.924 226.177 221.03 226.089C221.133 226.003 221.288 226.018 221.377 226.117C223 227.925 224.122 230.176 224.715 232.531C225.326 234.889 225.505 237.312 225.667 239.691C225.825 242.073 225.971 244.437 226.366 246.745C226.753 249.052 227.397 251.296 228.34 253.407L228.344 253.416C228.52 253.809 228.343 254.27 227.95 254.446C227.557 254.621 227.096 254.445 226.921 254.052C226.917 254.045 226.913 254.034 226.91 254.026Z" fill="#FFBBD0"/>
<path d="M233.064 233.756C233.331 231.186 234.145 228.716 235.383 226.454C236.606 224.19 238.293 222.15 240.338 220.565C240.576 220.344 240.835 220.151 241.111 219.982L241.922 219.45L242.738 218.927C243.02 218.771 243.318 218.644 243.607 218.502C244.192 218.231 244.766 217.934 245.358 217.686L247.189 217.085C247.496 216.994 247.799 216.886 248.11 216.809L249.055 216.636L250.94 216.293C252.207 216.165 253.484 216.134 254.746 216.082C254.82 216.079 254.883 216.137 254.886 216.211C254.889 216.28 254.84 216.338 254.774 216.349L254.757 216.352C253.513 216.563 252.266 216.684 251.04 216.911L249.224 217.351L248.319 217.57C248.023 217.662 247.737 217.784 247.446 217.889L245.699 218.515C245.136 218.767 244.595 219.066 244.043 219.338C243.77 219.481 243.489 219.608 243.223 219.762L242.46 220.28C241.967 220.646 241.399 220.91 240.954 221.338C238.983 222.819 237.431 224.783 236.16 226.889C234.915 229.012 234.022 231.384 233.564 233.802L233.56 233.826C233.534 233.961 233.404 234.05 233.268 234.025C233.137 234.002 233.051 233.883 233.064 233.756Z" fill="#FFBBD0"/>
<path d="M266.178 236.358C265.696 235.271 265.471 234.211 265.269 233.116C265.076 232.028 264.962 230.932 264.899 229.835C264.825 228.739 264.823 227.642 264.833 226.548C264.857 225.453 264.918 224.361 264.999 223.271C265.004 223.202 265.064 223.15 265.133 223.156C265.2 223.161 265.251 223.22 265.249 223.287C265.208 224.375 265.188 225.462 265.203 226.549C265.233 227.635 265.275 228.72 265.387 229.797C265.488 230.875 265.64 231.948 265.867 233C266.092 234.038 266.384 235.118 266.82 236.013L266.838 236.05C266.926 236.231 266.851 236.45 266.67 236.538C266.489 236.626 266.271 236.551 266.182 236.37C266.182 236.367 266.18 236.362 266.178 236.358Z" fill="#FFBBD0"/>
<path d="M274.59 212.54C275.405 212.646 276.286 212.765 276.955 213.329C277.634 213.84 278.107 214.61 278.33 215.416C278.832 217.029 278.842 218.711 278.863 220.354L278.829 225.289C278.827 226.93 278.891 228.566 279.013 230.195V230.201C279.026 230.375 278.895 230.527 278.721 230.54C278.547 230.553 278.395 230.422 278.382 230.248C278.382 230.246 278.382 230.243 278.382 230.241C278.296 228.587 278.269 226.933 278.308 225.284L278.453 220.352C278.471 218.72 278.491 217.057 278.045 215.506C277.848 214.726 277.423 214.011 276.807 213.523C276.204 212.985 275.368 212.851 274.579 212.729L274.565 212.727C274.514 212.719 274.479 212.671 274.486 212.62C274.492 212.568 274.539 212.533 274.59 212.54Z" fill="#FFBBD0"/>
<path d="M159.123 215.624C149.17 215.807 139.208 215.763 129.252 215.426C119.296 215.096 109.348 214.469 99.424 213.541C89.501 212.622 79.588 211.426 69.787 209.52C67.344 209.002 64.885 208.578 62.466 207.945L58.829 207.05C57.618 206.749 56.424 206.371 55.221 206.035C52.806 205.399 50.457 204.513 48.115 203.654L44.667 202.178C43.551 201.61 42.466 200.982 41.372 200.39C41.331 200.368 41.316 200.317 41.338 200.277C41.36 200.237 41.409 200.222 41.449 200.242L41.455 200.245C45.886 202.509 50.708 203.797 55.493 205.042C60.286 206.301 65.184 207.132 70.058 208.032C72.502 208.454 74.96 208.796 77.406 209.206L84.78 210.224L92.171 211.134C94.636 211.426 97.11 211.653 99.579 211.916C109.467 212.87 119.383 213.538 129.307 214.107C139.236 214.597 149.174 214.927 159.121 215.172C159.245 215.174 159.344 215.277 159.342 215.401C159.342 215.523 159.243 215.62 159.123 215.624Z" fill="#FF9CBB"/>
<path d="M161.942 203.342C219.98 203.342 267.03 196.727 267.03 188.568C267.03 180.409 219.98 173.794 161.942 173.794C103.904 173.794 56.854 180.409 56.854 188.568C56.854 196.727 103.904 203.342 161.942 203.342Z" fill="#FF6D91"/>
<path d="M242.896 132.227H59.104V186.045C59.104 193.516 103.884 199.573 159.123 199.573C194.189 199.573 225.039 197.132 242.895 193.438V132.227H242.896Z" fill="#FF9BF9"/>
<path d="M242.896 193.439C253.169 191.314 259.143 188.774 259.143 186.045V132.227H242.896V193.439Z" fill="#F48CED"/>
<path d="M105.335 189.634L102.086 182.909C101.917 182.559 102.064 182.139 102.413 181.97C102.763 181.801 103.183 181.948 103.352 182.297L106.602 189.022C106.771 189.372 106.625 189.792 106.275 189.961C105.925 190.13 105.504 189.984 105.335 189.634Z" fill="#C84ACE"/>
<path d="M96.349 170.475L100.083 164.007C100.277 163.671 100.707 163.556 101.043 163.75C101.379 163.944 101.495 164.374 101.3 164.71L97.566 171.178C97.372 171.514 96.942 171.63 96.606 171.435C96.27 171.241 96.154 170.811 96.349 170.475Z" fill="#C84ACE"/>
<path d="M71.613 181.522L64.888 184.772C64.538 184.941 64.118 184.794 63.949 184.445C63.78 184.095 63.926 183.675 64.276 183.506L71.001 180.256C71.351 180.087 71.771 180.234 71.94 180.583C72.109 180.933 71.962 181.353 71.613 181.522Z" fill="#C84ACE"/>
<path d="M74.788 165.81L71.158 161.518C70.969 161.295 70.997 160.961 71.22 160.772C71.443 160.583 71.777 160.611 71.966 160.834L75.596 165.126C75.785 165.349 75.757 165.683 75.534 165.872C75.31 166.061 74.976 166.033 74.788 165.81Z" fill="#C84ACE"/>
<path d="M144.609 192.541L137.328 194.204C136.949 194.29 136.573 194.054 136.486 193.675C136.4 193.296 136.636 192.919 137.015 192.833L144.296 191.17C144.675 191.084 145.052 191.32 145.138 191.699C145.225 192.077 144.988 192.454 144.609 192.541Z" fill="#C84ACE"/>
<path d="M199.227 169.121L193.946 163.84C193.671 163.566 193.671 163.12 193.946 162.846C194.221 162.571 194.666 162.571 194.94 162.846L200.221 168.127C200.496 168.402 200.496 168.847 200.221 169.121C199.947 169.395 199.501 169.395 199.227 169.121Z" fill="#C84ACE"/>
<path d="M179.769 195.915L173.301 192.181C172.965 191.987 172.849 191.557 173.044 191.22C173.238 190.884 173.668 190.768 174.005 190.963L180.473 194.697C180.809 194.891 180.924 195.321 180.73 195.658C180.535 195.993 180.105 196.109 179.769 195.915Z" fill="#C84ACE"/>
<path d="M161.666 162.39L165.756 168.639C165.969 168.964 165.878 169.4 165.553 169.612C165.228 169.825 164.792 169.734 164.58 169.409L160.49 163.16C160.277 162.835 160.368 162.399 160.693 162.187C161.018 161.974 161.454 162.065 161.666 162.39Z" fill="#C84ACE"/>
<path d="M157.78 188.441L158.828 181.046C158.882 180.662 159.238 180.394 159.623 180.448C160.008 180.503 160.275 180.858 160.221 181.243L159.173 188.638C159.119 189.022 158.763 189.29 158.378 189.236C157.993 189.181 157.725 188.826 157.78 188.441Z" fill="#C84ACE"/>
<path d="M240.765 175.685L244.855 181.934C245.068 182.259 244.977 182.695 244.652 182.907C244.327 183.12 243.891 183.029 243.679 182.704L239.589 176.455C239.376 176.13 239.467 175.694 239.792 175.482C240.117 175.269 240.553 175.36 240.765 175.685Z" fill="#C84ACE"/>
<path d="M218.091 191.083L224.762 187.725C225.109 187.55 225.532 187.69 225.706 188.037C225.881 188.384 225.741 188.807 225.394 188.981L218.723 192.339C218.376 192.514 217.954 192.374 217.779 192.027C217.605 191.68 217.744 191.258 218.091 191.083Z" fill="#C84ACE"/>
<path d="M198.135 183.503L195.154 190.351C194.999 190.707 194.585 190.87 194.229 190.715C193.873 190.56 193.71 190.146 193.865 189.79L196.846 182.942C197.001 182.586 197.415 182.423 197.771 182.578C198.127 182.733 198.29 183.147 198.135 183.503Z" fill="#C84ACE"/>
<path d="M257.051 157.234L253.289 160.694C253.093 160.874 252.789 160.861 252.609 160.665C252.429 160.469 252.442 160.165 252.638 159.985L256.4 156.525C256.596 156.345 256.9 156.358 257.08 156.553C257.259 156.75 257.247 157.055 257.051 157.234Z" fill="#C84ACE"/>
<path d="M59.25 160.509C59.19 160.787 59.144 161.054 59.104 161.315V164.373C59.669 167.246 61.863 167.197 61.583 162.592C61.208 156.425 65.041 153.425 64.916 159.009C64.791 164.592 67.958 169.426 68.833 154.176C69.708 138.926 81.125 148.968 80 170.968C78.875 192.968 88.194 193.304 89.694 170.429C91.194 147.554 108.027 150.475 107.625 162.218C107.167 175.593 114.625 174.843 114 161.193C113.375 147.544 125.487 153.375 122.487 171.875C119.487 190.375 130.416 195.384 130.166 172.759C129.916 150.134 146.083 149.509 143.749 166.65C141.416 183.791 149.707 187.409 151.041 169.909C152.374 152.409 161.999 152.593 167.666 154.259C174.424 156.247 169.279 188.024 176.124 187.092C180.467 186.501 180.973 179.499 180.759 164.674C180.426 141.591 211.165 142.342 211.624 171.279C211.929 190.527 222.166 192.925 221.416 172.675C220.666 152.425 226.916 146.092 226.916 157.925C226.916 169.758 231.749 172.925 231.499 157.842C231.249 142.759 244.499 143.342 244.666 155.509C244.833 167.676 249.499 170.259 249.749 154.926C249.999 139.593 258.249 142.676 257.999 149.009C257.915 151.136 258.439 152.276 259.142 152.702V132.977H59.705C59.346 134.123 60.604 154.259 59.25 160.509Z" fill="#CB65CE"/>
<path d="M260.594 148.124C259.802 144.041 260.042 132.227 260.042 132.227C260.042 124.755 214.859 118.699 159.124 118.699C103.388 118.699 58.206 124.756 58.206 132.227C57.847 133.373 59.105 153.509 57.751 159.759C56.397 166.009 60.459 168.009 60.084 161.842C59.709 155.675 63.542 152.675 63.417 158.259C63.292 163.842 66.459 168.676 67.334 153.426C68.209 138.176 79.626 148.218 78.501 170.218C77.376 192.218 86.695 192.554 88.195 169.679C89.695 146.804 106.528 149.725 106.126 161.468C105.668 174.843 113.126 174.093 112.501 160.443C111.876 146.794 123.988 152.625 120.988 171.125C117.988 189.625 128.917 194.634 128.667 172.009C128.417 149.384 144.584 148.759 142.25 165.9C139.917 183.041 148.208 186.659 149.542 169.159C150.875 151.659 160.5 151.843 166.167 153.509C172.925 155.497 167.78 187.274 174.625 186.342C178.968 185.751 179.474 178.749 179.26 163.924C178.927 140.841 209.666 141.592 210.125 170.529C210.43 189.777 220.667 192.175 219.917 171.925C219.167 151.675 225.417 145.342 225.417 157.175C225.417 169.008 230.25 172.175 230 157.092C229.75 142.009 243 142.592 243.167 154.759C243.334 166.926 248 169.509 248.25 154.176C248.5 138.843 256.75 141.926 256.5 148.259C256.25 154.592 261.385 152.207 260.594 148.124Z" fill="#FF5299"/>
<path d="M161.213 140.842C206.992 140.842 244.104 136.053 244.104 130.145C244.104 124.237 206.992 119.448 161.213 119.448C115.434 119.448 78.322 124.237 78.322 130.145C78.322 136.053 115.434 140.842 161.213 140.842Z" fill="#EA4B94"/>
<path d="M72.016 144.82C73.672 145.468 75.107 146.626 76.175 148.037C77.253 149.448 78.005 151.076 78.567 152.745C79.681 156.102 80.066 159.629 80.319 163.122C80.543 166.625 80.557 170.132 80.619 173.626C80.655 175.372 80.7 177.118 80.853 178.843C80.935 179.704 81.037 180.563 81.232 181.387C81.413 182.204 81.688 183.038 82.193 183.571L82.209 183.587C82.356 183.742 82.35 183.987 82.195 184.134C82.04 184.281 81.795 184.275 81.648 184.12C81.646 184.118 81.643 184.115 81.641 184.113C80.945 183.342 80.703 182.422 80.509 181.55C80.313 180.668 80.22 179.784 80.147 178.903C80.013 177.141 79.99 175.385 79.976 173.634C79.958 170.131 79.987 166.637 79.808 163.152C79.6 159.679 79.259 156.178 78.205 152.863C77.674 151.215 76.956 149.614 75.924 148.228C74.901 146.842 73.527 145.704 71.922 145.052C71.858 145.026 71.827 144.953 71.853 144.889C71.879 144.826 71.952 144.795 72.016 144.82Z" fill="#FCA7CE"/>
<path d="M106.954 157.975C107.184 159.046 107.13 160.085 107.176 161.133C107.2 162.177 107.23 163.219 107.309 164.254C107.395 165.285 107.514 166.32 107.794 167.293C108.059 168.242 108.563 169.239 109.42 169.397C109.598 169.43 109.715 169.6 109.683 169.778C109.65 169.956 109.48 170.073 109.302 170.041C109.298 170.04 109.292 170.039 109.287 170.038C108.671 169.897 108.169 169.456 107.876 168.972C107.574 168.485 107.395 167.961 107.259 167.439C106.995 166.391 106.911 165.333 106.857 164.282C106.811 163.23 106.814 162.181 106.824 161.136C106.815 160.1 106.891 159.027 106.712 158.043L106.708 158.024C106.696 157.956 106.741 157.891 106.808 157.879C106.876 157.867 106.939 157.91 106.954 157.975Z" fill="#FCA7CE"/>
<path d="M63.945 155.949C64.072 156.531 64.035 157.099 64.047 157.668C64.049 158.236 64.055 158.802 64.094 159.364C64.183 160.466 64.336 161.655 65.032 162.476C65.098 162.55 65.091 162.663 65.017 162.729C64.943 162.795 64.83 162.788 64.764 162.714L64.759 162.709C64.369 162.233 64.166 161.659 64.042 161.094C63.918 160.525 63.868 159.95 63.847 159.378C63.826 158.805 63.839 158.235 63.855 157.667C63.863 157.103 63.912 156.523 63.813 155.987L63.811 155.977C63.804 155.94 63.829 155.904 63.866 155.898C63.902 155.889 63.937 155.913 63.945 155.949Z" fill="#FCA7CE"/>
<path d="M58.547 157.892C58.371 159.132 58.154 160.353 58.132 161.59C58.121 162.205 58.14 162.824 58.27 163.415C58.397 164 58.636 164.577 59.078 164.929C59.157 164.989 59.173 165.101 59.113 165.18C59.053 165.259 58.941 165.275 58.862 165.215L58.854 165.208C58.322 164.754 58.091 164.095 57.973 163.474C57.854 162.843 57.855 162.207 57.885 161.581C57.944 160.325 58.201 159.093 58.411 157.876L58.412 157.871C58.418 157.834 58.454 157.809 58.491 157.815C58.528 157.821 58.552 157.855 58.547 157.892Z" fill="#FCA7CE"/>
<path d="M122.784 167.624C122.441 170.57 122.223 173.543 122.213 176.5C122.215 177.977 122.27 179.456 122.471 180.896C122.578 181.612 122.722 182.322 122.958 182.969C123.178 183.619 123.563 184.194 123.99 184.337L124.003 184.341C124.284 184.435 124.435 184.739 124.341 185.019C124.247 185.299 123.943 185.451 123.663 185.357C123.654 185.354 123.644 185.35 123.635 185.347C123.142 185.151 122.795 184.792 122.542 184.429C122.313 184.058 122.14 183.677 122.02 183.296C121.773 182.533 121.651 181.77 121.563 181.011C121.406 179.493 121.404 177.986 121.454 176.486C121.57 173.487 121.893 170.517 122.342 167.56C122.361 167.438 122.474 167.354 122.597 167.372C122.715 167.391 122.797 167.505 122.784 167.624Z" fill="#FCA7CE"/>
<path d="M143.773 177.828C142.939 175.633 142.981 173.358 143.035 171.166C143.114 168.962 143.319 166.782 143.405 164.606C143.483 162.437 143.492 160.245 142.995 158.161C142.743 157.126 142.346 156.125 141.733 155.272C141.126 154.417 140.294 153.731 139.333 153.288C139.208 153.23 139.153 153.082 139.211 152.956C139.268 152.832 139.416 152.778 139.541 152.833C140.578 153.291 141.504 154.027 142.177 154.947C142.857 155.865 143.295 156.931 143.576 158.014C144.129 160.195 144.147 162.433 144.103 164.628C144.049 166.829 143.877 169.014 143.832 171.187C143.803 173.341 143.831 175.565 144.601 177.481L144.609 177.5C144.701 177.73 144.59 177.991 144.36 178.084C144.13 178.176 143.869 178.065 143.776 177.835L143.773 177.828Z" fill="#FCA7CE"/>
<path d="M168.255 152.956C168.767 153.232 169.198 153.638 169.579 154.079C169.924 154.544 170.238 155.036 170.479 155.558C170.968 156.601 171.275 157.705 171.511 158.811C171.956 161.032 172.143 163.274 172.278 165.51C172.419 167.746 172.441 169.983 172.505 172.213C172.573 174.443 172.59 176.675 172.811 178.89C172.818 178.959 172.769 179.02 172.7 179.028C172.633 179.035 172.573 178.987 172.563 178.921C172.254 176.7 172.098 174.464 171.987 172.233C171.879 170.001 171.764 167.772 171.624 165.551C171.472 163.332 171.267 161.113 170.815 158.955C170.597 157.877 170.325 156.809 169.912 155.807C169.518 154.8 168.966 153.851 168.119 153.167C168.064 153.125 168.053 153.047 168.094 152.991C168.132 152.942 168.202 152.929 168.255 152.956Z" fill="#FCA7CE"/>
<path d="M197.126 146.225C198.854 146.87 200.545 147.633 202.114 148.625C203.667 149.635 205.098 150.844 206.319 152.248C208.785 155.055 210.292 158.59 211.139 162.189C212.006 165.802 212.304 169.502 212.669 173.146C212.855 174.968 213.053 176.787 213.442 178.54C213.618 179.423 213.896 180.267 214.208 181.085C214.558 181.882 214.992 182.625 215.548 183.249L215.563 183.266C215.773 183.502 215.753 183.864 215.517 184.074C215.281 184.284 214.919 184.264 214.709 184.028C214.707 184.026 214.704 184.022 214.702 184.021C214.044 183.257 213.568 182.387 213.198 181.495C212.871 180.592 212.596 179.677 212.43 178.754C212.061 176.911 211.902 175.064 211.751 173.23C211.46 169.564 211.237 165.906 210.459 162.345C209.699 158.799 208.303 155.339 205.958 152.555C204.796 151.163 203.422 149.951 201.916 148.928C200.394 147.923 198.74 147.135 197.04 146.46C196.975 146.437 196.941 146.365 196.964 146.3C196.987 146.236 197.062 146.203 197.126 146.225Z" fill="#FCA7CE"/>
<path d="M227.614 165.838C227.525 165.801 227.412 165.732 227.359 165.672L227.248 165.515C227.174 165.408 227.143 165.313 227.09 165.211C227.006 165.01 226.927 164.812 226.869 164.612C226.739 164.213 226.641 163.81 226.552 163.406C226.375 162.598 226.25 161.784 226.156 160.966C225.976 159.33 225.939 157.679 226.085 156.04C226.091 155.971 226.152 155.92 226.221 155.927C226.289 155.933 226.339 155.993 226.334 156.061C226.231 157.682 226.31 159.312 226.529 160.92C226.642 161.723 226.787 162.522 226.98 163.306C227.077 163.697 227.183 164.088 227.316 164.462C227.377 164.652 227.455 164.832 227.533 165.006C227.577 165.083 227.615 165.184 227.662 165.242L227.728 165.335C227.746 165.345 227.728 165.323 227.721 165.346C227.857 165.375 227.943 165.509 227.914 165.645C227.883 165.781 227.75 165.867 227.614 165.838Z" fill="#FCA7CE"/>
<path d="M241.106 146.489C242.129 147.368 242.911 148.53 243.36 149.805C243.82 151.081 243.996 152.429 244.118 153.758C244.33 156.422 244.465 159.077 245.02 161.662C245.052 161.811 244.957 161.957 244.809 161.989C244.661 162.021 244.514 161.926 244.482 161.778C244.482 161.776 244.481 161.773 244.481 161.771C243.975 159.125 243.9 156.434 243.749 153.788C243.658 152.467 243.513 151.144 243.095 149.899C242.687 148.654 241.961 147.517 240.979 146.633C240.94 146.598 240.936 146.537 240.972 146.497C241.006 146.458 241.066 146.456 241.106 146.489Z" fill="#FCA7CE"/>
<path d="M257.232 147.607C257.174 148.289 257.196 148.995 257.343 149.65C257.481 150.302 257.847 150.919 258.424 151.003C258.561 151.023 258.655 151.15 258.635 151.287C258.615 151.424 258.488 151.519 258.351 151.498C258.344 151.497 258.332 151.495 258.325 151.493C257.914 151.397 257.561 151.114 257.36 150.779C257.155 150.444 257.045 150.079 256.991 149.72C256.881 148.997 256.91 148.284 257.017 147.577C257.026 147.518 257.081 147.478 257.139 147.487C257.195 147.496 257.235 147.546 257.23 147.602L257.232 147.607Z" fill="#FCA7CE"/>
<path d="M156.374 145.998C148.81 146.088 141.242 146.107 133.677 145.902C126.111 145.733 118.549 145.361 110.996 144.834C107.219 144.58 103.445 144.27 99.674 143.912C95.906 143.524 92.143 143.09 88.389 142.568C80.895 141.496 73.38 140.198 66.168 137.768C66.035 137.723 65.964 137.58 66.009 137.447C66.052 137.32 66.185 137.249 66.313 137.283L66.321 137.285C73.61 139.198 81.095 140.233 88.572 141.185C92.312 141.665 96.065 142.057 99.823 142.403C103.577 142.782 107.337 143.118 111.102 143.395C118.631 143.958 126.173 144.38 133.719 144.736C141.267 145.04 148.819 145.331 156.377 145.502C156.514 145.505 156.623 145.618 156.62 145.755C156.617 145.889 156.507 145.996 156.374 145.998Z" fill="#FF80BA"/>
<path d="M213.565 86.159H81.23V128.093C81.23 132.85 116.121 136.706 159.162 136.706C180.329 136.706 199.521 135.773 213.565 134.259V86.159Z" fill="#FDCE8F"/>
<path d="M213.565 134.259C228.078 132.695 237.094 130.51 237.094 128.093V86.159H213.565V134.259Z" fill="#F4BA7A"/>
<path d="M84.548 125.92L88.282 119.452C88.476 119.116 88.906 119.001 89.242 119.195C89.578 119.389 89.694 119.819 89.499 120.155L85.765 126.623C85.571 126.959 85.141 127.075 84.805 126.88C84.469 126.686 84.354 126.256 84.548 125.92Z" fill="#859393"/>
<path d="M101.884 119.281L95.642 115.179C95.317 114.966 95.227 114.53 95.441 114.205C95.654 113.88 96.09 113.79 96.415 114.003L102.657 118.105C102.981 118.318 103.072 118.754 102.858 119.079C102.644 119.404 102.208 119.495 101.884 119.281Z" fill="#859393"/>
<path d="M100.465 123.686L107.277 126.748C107.631 126.907 107.789 127.323 107.63 127.678C107.471 128.032 107.055 128.19 106.701 128.031L99.889 124.969C99.535 124.81 99.377 124.394 99.536 124.039C99.695 123.685 100.111 123.527 100.465 123.686Z" fill="#859393"/>
<path d="M114.824 118.599L121.887 116.17C122.254 116.044 122.654 116.239 122.78 116.606C122.906 116.973 122.711 117.373 122.344 117.5L115.281 119.929C114.914 120.055 114.514 119.86 114.387 119.493C114.261 119.125 114.457 118.725 114.824 118.599Z" fill="#859393"/>
<path d="M167.921 118.747L175.316 119.795C175.7 119.849 175.968 120.205 175.913 120.59C175.859 120.974 175.503 121.242 175.118 121.188L167.723 120.14C167.339 120.086 167.071 119.73 167.125 119.345C167.181 118.96 167.537 118.693 167.921 118.747Z" fill="#859393"/>
<path d="M162.069 125.512L165.433 132.18C165.608 132.527 165.469 132.95 165.122 133.124C164.775 133.299 164.352 133.16 164.177 132.813L160.813 126.145C160.638 125.798 160.777 125.376 161.124 125.201C161.471 125.026 161.894 125.165 162.069 125.512Z" fill="#859393"/>
<path d="M159.326 109.272L166.606 107.604C166.984 107.517 167.362 107.754 167.448 108.132C167.535 108.51 167.298 108.888 166.92 108.974L159.64 110.642C159.261 110.729 158.884 110.492 158.798 110.114C158.711 109.736 158.948 109.359 159.326 109.272Z" fill="#859393"/>
<path d="M129.586 129.967L136.649 127.538C137.016 127.412 137.416 127.607 137.542 127.974C137.668 128.341 137.473 128.741 137.106 128.868L130.043 131.297C129.676 131.423 129.276 131.228 129.15 130.861C129.024 130.493 129.219 130.094 129.586 129.967Z" fill="#859393"/>
<path d="M135.331 111.755L140.154 117.458C140.405 117.754 140.368 118.198 140.071 118.449C139.774 118.7 139.331 118.663 139.08 118.366L134.257 112.663C134.006 112.366 134.043 111.923 134.34 111.672C134.637 111.421 135.08 111.458 135.331 111.755Z" fill="#859393"/>
<path d="M188.434 131.262L185.101 125.49C184.928 125.19 185.031 124.806 185.331 124.633C185.631 124.46 186.015 124.563 186.188 124.863L189.521 130.635C189.694 130.935 189.591 131.319 189.291 131.492C188.991 131.664 188.608 131.562 188.434 131.262Z" fill="#859393"/>
<path d="M190.783 112.323L187.45 106.551C187.277 106.251 187.38 105.867 187.68 105.694C187.98 105.521 188.364 105.624 188.537 105.924L191.87 111.696C192.043 111.996 191.94 112.38 191.64 112.553C191.34 112.726 190.956 112.624 190.783 112.323Z" fill="#859393"/>
<path d="M208.452 122.995L209.94 129.492C210.017 129.83 209.806 130.166 209.469 130.244C209.131 130.321 208.795 130.11 208.717 129.773L207.229 123.276C207.152 122.938 207.363 122.602 207.701 122.524C208.038 122.446 208.375 122.657 208.452 122.995Z" fill="#859393"/>
<path d="M226.575 127.357L231.481 122.845C231.736 122.61 232.133 122.627 232.368 122.882C232.603 123.137 232.586 123.534 232.331 123.769L227.425 128.281C227.17 128.516 226.773 128.499 226.538 128.244C226.303 127.989 226.32 127.592 226.575 127.357Z" fill="#748483"/>
<path d="M233.807 108.163L235.724 114.547C235.824 114.879 235.635 115.229 235.303 115.328C234.971 115.428 234.621 115.239 234.522 114.907L232.605 108.523C232.505 108.191 232.694 107.841 233.026 107.742C233.358 107.643 233.707 107.831 233.807 108.163Z" fill="#748483"/>
<path d="M237.095 102.598V86.878H81.747C81.747 86.878 81.688 100.115 81.594 103.217C81.553 104.572 81.332 106.214 81.23 107.694V110.002C81.356 111.074 81.739 111.776 82.625 111.737C84.445 111.657 86.734 96.769 89.375 96.654C95.125 96.404 90.75 112.967 95.438 112.467C100.126 111.967 98.096 102.962 102.084 103.009C109.126 103.092 103.251 119.782 108.751 119.448C114.251 119.115 108.814 101.842 119.001 101.779C130.501 101.709 121.713 116.766 128.001 116.467C133.251 116.217 125.313 103.217 139.876 103.842C148.877 104.228 143.168 123.592 149.168 124.259C155.168 124.926 155.168 116.926 156.418 106.092C157.668 95.259 178.751 94.029 177.918 111.675C177.584 118.755 184.313 120.447 184.001 109.842C183.563 94.967 194.876 97.092 195.668 103.675C196.082 107.116 193.668 127.258 197.418 126.592C201.168 125.925 201.585 115.425 200.751 104.092C199.918 92.759 211.939 94.904 213.001 100.029C214.185 105.742 210.658 123.604 216.814 123.154C220.231 122.904 219.668 110.758 218.835 102.425C218.002 94.092 224.793 93.967 226.377 97.217C227.96 100.467 222.986 111.54 227.669 112.151C232.002 112.717 231.169 106.342 230.669 100.008C230.169 93.674 236.336 95.341 236.336 100.008C236.333 101.333 236.653 102.179 237.095 102.598Z" fill="#E8A658"/>
<path d="M238.333 97.634C237.896 94.573 237.75 86.128 237.75 86.128C237.75 81.371 202.548 77.515 159.123 77.515C115.698 77.515 80.496 81.371 80.496 86.128C80.496 86.128 80.437 99.365 80.343 102.467C80.24 105.873 78.999 111.092 81.374 110.988C83.194 110.908 85.483 96.019 88.124 95.905C93.874 95.655 89.499 112.218 94.187 111.718C98.875 111.218 96.845 102.213 100.833 102.26C107.875 102.343 102 119.033 107.5 118.699C113 118.365 107.563 101.093 117.75 101.03C129.25 100.96 120.462 116.017 126.75 115.718C132 115.468 124.062 102.468 138.625 103.093C147.626 103.479 141.917 122.843 147.917 123.51C153.917 124.177 153.917 116.177 155.167 105.343C156.417 94.51 177.5 93.28 176.667 110.926C176.333 118.006 183.062 119.698 182.75 109.093C182.312 94.218 193.625 96.343 194.417 102.926C194.831 106.367 192.417 126.509 196.167 125.843C199.917 125.176 200.334 114.676 199.5 103.343C198.667 92.01 210.688 94.155 211.75 99.28C212.934 104.993 209.407 122.855 215.563 122.405C218.98 122.155 218.417 110.009 217.584 101.676C216.751 93.343 223.542 93.218 225.126 96.468C226.709 99.718 221.735 110.791 226.418 111.402C230.751 111.968 229.918 105.593 229.418 99.259C228.918 92.926 235.085 94.592 235.085 99.259C235.083 103.926 239.052 102.665 238.333 97.634Z" fill="#FF759B"/>
<path d="M80.281 109.481C80.126 107.984 80.211 106.484 80.597 105.041C80.615 104.974 80.683 104.935 80.75 104.953C80.815 104.97 80.854 105.039 80.839 105.104C80.521 106.514 80.504 108.001 80.711 109.414L80.713 109.427C80.731 109.546 80.648 109.657 80.529 109.674C80.41 109.692 80.299 109.609 80.282 109.49C80.282 109.487 80.282 109.484 80.281 109.481Z" fill="#FFBBD0"/>
<path d="M90.053 95.655C91.128 96.504 91.64 97.835 91.951 99.114C92.262 100.414 92.38 101.746 92.465 103.07C92.551 104.395 92.591 105.721 92.695 107.036C92.817 108.324 92.936 109.718 93.627 110.726L93.648 110.757C93.716 110.856 93.691 110.991 93.592 111.058C93.493 111.126 93.358 111.1 93.291 111.002C93.291 111.002 93.289 110.999 93.288 110.997C92.491 109.766 92.455 108.375 92.344 107.06C92.267 105.73 92.254 104.405 92.196 103.084C92.139 101.764 92.049 100.441 91.769 99.155C91.488 97.887 91.013 96.581 89.989 95.736C89.966 95.719 89.961 95.686 89.979 95.663C89.996 95.642 90.03 95.639 90.053 95.655Z" fill="#FFBBD0"/>
<path d="M107.267 118.121C106.842 118.083 106.462 117.812 106.244 117.501C106.009 117.19 105.884 116.848 105.782 116.512C105.587 115.835 105.506 115.156 105.445 114.48C105.332 113.128 105.326 111.785 105.291 110.445C105.256 109.106 105.217 107.767 105.038 106.447C104.947 105.789 104.823 105.133 104.604 104.51C104.386 103.894 104.06 103.295 103.535 102.913C103.495 102.887 103.484 102.834 103.51 102.795C103.535 102.756 103.591 102.747 103.63 102.771C104.212 103.173 104.569 103.803 104.81 104.434C105.052 105.073 105.194 105.74 105.303 106.407C105.517 107.743 105.588 109.091 105.656 110.432C105.723 111.772 105.762 113.115 105.905 114.435C105.979 115.093 106.077 115.75 106.27 116.36C106.45 116.966 106.806 117.531 107.316 117.564C107.47 117.574 107.588 117.707 107.578 117.861C107.568 118.015 107.435 118.133 107.281 118.123C107.279 118.123 107.277 118.123 107.275 118.123L107.267 118.121Z" fill="#FFBBD0"/>
<path d="M123.221 102.023C123.92 102.79 124.389 103.744 124.673 104.735C124.96 105.728 125.082 106.758 125.142 107.782C125.201 108.807 125.192 109.833 125.201 110.85C125.217 111.862 125.226 112.892 125.489 113.823L125.493 113.837C125.528 113.961 125.456 114.089 125.332 114.124C125.208 114.159 125.08 114.087 125.045 113.963C125.045 113.961 125.043 113.957 125.043 113.957C124.779 112.908 124.808 111.871 124.816 110.849C124.834 109.826 124.87 108.81 124.837 107.796C124.805 106.784 124.71 105.772 124.456 104.795C124.204 103.822 123.774 102.885 123.113 102.12C123.087 102.09 123.09 102.044 123.12 102.017C123.149 101.991 123.194 101.994 123.221 102.023Z" fill="#FFBBD0"/>
<path d="M129.336 105.701C129.793 104.445 130.76 103.413 131.897 102.716C133.04 102.017 134.35 101.61 135.679 101.478C137.008 101.362 138.375 101.5 139.623 101.992C140.873 102.469 141.982 103.315 142.732 104.407C142.742 104.421 142.738 104.441 142.724 104.451C142.71 104.46 142.692 104.457 142.682 104.445C141.857 103.424 140.74 102.681 139.525 102.257C138.306 101.837 136.994 101.696 135.713 101.834C134.432 101.959 133.169 102.336 132.054 102.98C130.943 103.618 129.965 104.545 129.413 105.734C129.403 105.755 129.379 105.764 129.358 105.755C129.338 105.745 129.329 105.722 129.336 105.701Z" fill="#FFBBD0"/>
<path d="M144.872 109.097C145.148 110.311 145.255 111.546 145.353 112.773L145.623 116.449C145.738 117.664 145.887 118.885 146.243 120.023C146.561 121.168 147.313 122.186 148.413 122.312L148.437 122.315C148.609 122.335 148.732 122.49 148.713 122.662C148.693 122.834 148.538 122.957 148.366 122.938C148.357 122.937 148.347 122.935 148.338 122.934C147.669 122.796 146.985 122.487 146.589 121.923C146.355 121.675 146.235 121.364 146.063 121.084C145.954 120.782 145.818 120.486 145.736 120.18C145.389 118.957 145.273 117.715 145.188 116.483L145.012 112.794C144.945 111.57 144.87 110.344 144.63 109.149C144.616 109.081 144.659 109.015 144.727 109.001C144.791 108.988 144.856 109.031 144.872 109.097Z" fill="#FFBBD0"/>
<path d="M174.718 100.29C175.629 101.33 176.413 102.491 176.946 103.778C177.486 105.063 177.738 106.448 177.866 107.821C177.996 109.197 177.977 110.576 178.086 111.923C178.191 113.258 178.538 114.596 179.476 115.481L179.48 115.485C179.594 115.592 179.599 115.771 179.492 115.884C179.385 115.998 179.206 116.003 179.092 115.896L179.088 115.892C178.013 114.839 177.682 113.322 177.601 111.96C177.517 110.574 177.562 109.208 177.46 107.854C177.36 106.504 177.141 105.156 176.641 103.899C176.148 102.64 175.406 101.495 174.533 100.457L174.529 100.453C174.485 100.4 174.491 100.321 174.544 100.277C174.596 100.233 174.673 100.239 174.718 100.29Z" fill="#FFBBD0"/>
<path d="M195.274 106.001C195.05 109.104 194.902 112.216 194.873 115.325C194.861 116.879 194.883 118.433 194.988 119.977C195.043 120.748 195.123 121.517 195.262 122.265C195.33 122.639 195.425 123.004 195.546 123.346C195.664 123.679 195.885 123.992 196.041 124.01L196.06 124.012C196.222 124.031 196.337 124.177 196.318 124.338C196.299 124.499 196.153 124.615 195.992 124.596C195.981 124.595 195.971 124.593 195.96 124.591C195.651 124.52 195.433 124.323 195.31 124.129C195.172 123.934 195.098 123.736 195.018 123.539C194.888 123.145 194.797 122.751 194.734 122.358C194.606 121.572 194.543 120.788 194.505 120.004C194.432 118.438 194.446 116.876 194.492 115.316C194.59 112.197 194.807 109.087 195.101 105.984C195.105 105.936 195.148 105.901 195.195 105.906C195.243 105.912 195.277 105.954 195.274 106.001Z" fill="#FFBBD0"/>
<path d="M214.385 121.294C213.96 120.949 213.838 120.649 213.639 120.309C213.476 119.975 213.34 119.636 213.229 119.294C213.005 118.609 212.852 117.914 212.732 117.218C212.489 115.825 212.41 114.423 212.359 113.025C212.287 110.228 212.446 107.442 212.686 104.668C212.691 104.61 212.742 104.566 212.801 104.571C212.858 104.576 212.901 104.626 212.898 104.683C212.75 107.457 212.685 110.239 212.847 113.002C212.942 114.38 213.067 115.76 213.348 117.102C213.486 117.772 213.656 118.433 213.885 119.064C213.999 119.38 214.133 119.682 214.285 119.969C214.427 120.23 214.661 120.548 214.782 120.641L214.855 120.697C215.022 120.825 215.053 121.063 214.926 121.23C214.798 121.397 214.56 121.428 214.393 121.301C214.391 121.299 214.387 121.296 214.385 121.294Z" fill="#FFBBD0"/>
<path d="M226.441 110.828C225.79 110.483 225.379 109.81 225.234 109.157C225.069 108.498 225.054 107.836 225.078 107.188C225.138 105.89 225.362 104.627 225.58 103.371C225.799 102.115 226.035 100.864 226.158 99.606C226.26 98.372 226.334 97.021 225.679 95.978L225.673 95.968C225.636 95.91 225.654 95.833 225.712 95.796C225.77 95.76 225.846 95.777 225.883 95.834C226.628 96.988 226.551 98.376 226.477 99.634C226.375 100.916 226.161 102.178 225.965 103.436C225.77 104.693 225.573 105.952 225.538 107.204C225.525 107.827 225.556 108.453 225.712 109.03C225.856 109.613 226.192 110.103 226.683 110.358C226.814 110.423 226.868 110.583 226.802 110.714C226.737 110.845 226.577 110.899 226.446 110.833L226.441 110.828Z" fill="#FFBBD0"/>
<path d="M236.553 101.762C236.184 101.696 235.927 101.4 235.802 101.109C235.69 100.813 235.627 100.517 235.589 100.223L235.397 98.484C235.321 97.913 235.2 97.346 234.966 96.826C234.735 96.307 234.366 95.85 233.878 95.547C233.852 95.532 233.843 95.498 233.858 95.471C233.873 95.445 233.907 95.437 233.933 95.451C234.452 95.749 234.859 96.219 235.118 96.754C235.381 97.289 235.525 97.871 235.621 98.45L235.87 100.178C235.958 100.725 236.131 101.357 236.602 101.423C236.696 101.434 236.764 101.519 236.753 101.613C236.742 101.707 236.657 101.775 236.563 101.764C236.563 101.764 236.555 101.762 236.553 101.762Z" fill="#FFBBD0"/>
<path d="M159.123 94.867C146.728 95.189 134.316 95.025 121.927 94.329C115.73 94.017 109.543 93.489 103.375 92.772C97.227 91.965 91.031 91.111 85.103 89.171L85.176 88.932C88.171 89.694 91.235 90.135 94.291 90.575C97.346 91.029 100.428 91.31 103.501 91.636C109.651 92.274 115.826 92.684 122 93.102C128.177 93.493 134.362 93.747 140.549 94.022L159.124 94.618L159.123 94.867Z" fill="#FF9CBB"/>
<path d="M188.282 78.127L158.906 83.733L159.64 84.715L192.55 78.33C191.149 78.258 189.727 78.19 188.282 78.127Z" fill="#FF5784"/>
<path d="M159 85L159 51" stroke="#7CC5D1" stroke-width="1.25" stroke-miterlimit="10"/>
<path d="M164.791 57.0518L175.746 63.2358L165.512 56.0418L165.736 55.6598L169.584 55.5158L169.671 56.4908L169.759 55.5089L171.534 55.4428L170.017 52.6339L170.075 51.9848L171.038 51.9548L171.802 53.1868L171.311 51.9458L186.034 51.4949L170.95 51.0328L170.492 49.8738L170.997 49.7108L170.213 49.1698L169.822 48.1798L169.787 47.7859L172.888 45.7908L173.014 49.2768L173.547 45.5518L173.707 45.5098L176.193 50.6848L174.664 45.1508L178.239 43.3588L179.593 43.2868L180.762 44.3839L179.522 42.7148L179.902 42.5248L179.465 42.6378L178.386 41.1848L185.256 34.2458L177.813 40.5418L175.636 38.4988L177.473 36.3378L173.715 37.4588L173.684 36.6168L173.557 37.5058L168.706 38.9518L169.891 37.1128L170.103 37.0338L173.307 37.0998L171.24 36.6098L171.499 36.5128L171.086 36.5728L170.351 36.3988L183.881 15.4008L169.679 36.2398L167.605 35.7488L167.808 30.3218L170.055 25.2568L164.924 35.1658L164.104 32.8468L165.682 30.5108L163.887 32.2328L163.786 31.9468L163.84 32.2788L161.454 34.5688L159.581 33.2578L158.864 31.5698L163.41 29.9778L157.595 30.7068L155.789 25.2568L156.599 30.9408L151.068 32.8778L156.883 32.1488L158.555 37.1958L156.321 34.9558L157.238 34.2858L156.14 34.7748L154.598 33.2278L154.28 35.6018L151.884 36.6678L143.744 23.7218L150.998 37.1798L149.528 38.2528L147.493 37.1618L148.52 38.9888L148.289 39.1578L144.528 33.7928L148.061 39.3238L146.265 40.6348L148.316 39.7228L149.214 41.1278L146.88 42.6878L142.824 38.6248L146.095 43.3438L145.772 43.6768L143.383 43.6548L145.362 44.0998L143.557 45.9628L141.703 42.9458L142.881 45.9578L118.773 39.8148L142.914 46.6288L142.017 47.5548L143.196 46.7668L143.794 48.2958L138.854 51.4478L144.347 49.4058L145.146 50.7058L143.29 51.3628L143.473 50.5858L143.067 51.4418L137.866 53.2838L128.661 56.5438L138.154 53.4148L141.495 54.9318L140.564 58.8928L142.308 55.2169L146.172 56.1948L142.543 54.5468L143.2 51.7518L145.354 51.0418L146.603 53.0748L143.745 54.9908L149.002 54.2048L148.769 56.8098L142.942 57.4298L148.769 58.0499L149.28 63.7678L149.791 58.0499L150.697 57.9538L150.328 59.5988L151.037 57.9178L153.826 57.6208L153.966 58.9308L153.54 58.8428L153.977 59.0359L154.807 66.7848L158.212 60.9068L158.9 61.2108L157.642 66.8128L159.874 61.5229L161.146 61.7859L161.847 63.2188L161.874 61.9368L165.613 62.7108L161.892 61.0668L161.906 60.4158L164.791 57.0518ZM141.728 54.2628L138.252 53.3839L142.867 51.8628L141.728 54.2628ZM163.959 56.4578L161.915 59.9398L161.996 56.0178L162.211 55.7928L163.168 55.7568L163.959 56.4578ZM150.468 45.0648L150.073 45.2648L150.103 45.1199L150.19 45.0618L150.468 45.0648ZM164.709 37.6158L164.651 37.6368L164.589 37.5748L164.671 37.3888L164.709 37.6158ZM172.842 44.5658L168.983 46.5008L168.921 46.4018L171.526 43.3368L172.804 43.5418L172.842 44.5658ZM169.107 46.6998L169.541 46.5878L169.133 46.7408L169.107 46.6998ZM164.19 40.3008L164.192 38.9378L165.017 38.8178L165.413 39.9368L164.19 40.3008ZM164.064 36.8278L163.941 36.9218L163.841 36.8218L164.134 36.6918L164.064 36.8278ZM163.415 37.3238L161.61 38.7028L161.427 37.8948L163.142 37.1318L163.415 37.3238ZM160.526 39.1758L159.716 38.3638L160.453 38.2098L160.817 39.0668L160.526 39.1758ZM174.229 43.9918L174.033 43.5838L175 43.5328L174.692 43.8718L174.229 43.9918ZM172.707 42.3108L172.383 42.3279L172.631 42.0359L172.707 42.3108ZM166.194 39.7038L166.114 39.2128L166.339 39.3708L166.328 39.6638L166.194 39.7038ZM166.34 39.3388L166.094 39.0908L166.008 38.5638L166.375 38.4268L166.34 39.3388ZM165.7 37.3618L165.436 36.6168L166.433 36.8528L166.418 37.2568L165.7 37.3618ZM166.59 35.6218L166.542 35.6208L166.595 35.5968L166.59 35.6218ZM163.273 36.2488L163.085 36.0598L163.597 36.1808L163.273 36.2488ZM161.742 36.1528L162.2 36.4738L161.187 36.6858L161.742 36.1528ZM150.932 43.8208L150.805 43.9518L150.258 43.8288L150.285 42.8078L150.932 43.8208ZM149.08 45.6718L148.479 44.8038L149.099 44.9438L149.08 45.6718ZM144.709 47.8398L144.185 46.9878L145.786 47.4398L144.709 47.8398ZM168.818 50.4168L169.336 50.2498L169.268 51.0078L169.145 51.0208L168.818 50.4168ZM170.074 51.0089L170.011 50.3008L170.457 51.0208L170.074 51.0089ZM174.812 43.8408L175.261 43.5188L176.266 43.4658L174.812 43.8408ZM179.57 43.2668L178.703 43.1278L179.171 42.8928L179.57 43.2668ZM177.856 41.6588L179.023 42.7538L178.006 43.0168L176.336 42.7488L177.856 41.6588ZM175.519 38.6398L177.284 41.0158L175.792 42.6609L173.893 42.3559L173.83 40.6268L175.519 38.6398ZM167.607 39.2818L166.897 39.4938L167.198 38.1198L168.808 37.5198L167.607 39.2818ZM168.199 36.9968L167.42 37.1108L167.448 36.9818L168.199 36.9968ZM166.605 35.5508L166.296 35.6158L165.466 35.5988L167.695 30.5748L166.605 35.5508ZM163.965 33.0548L164.376 35.5768L162.569 35.5398L162.401 35.3708L163.965 33.0548ZM160.793 35.3528L160.593 35.6488L160.224 34.7798L160.793 35.3528ZM158.836 31.5808L159.149 32.9578L157.901 32.0848L157.877 31.9168L158.836 31.5808ZM157.96 32.4988L159.366 33.9148L159.969 36.5728L159.485 37.2888L158.903 37.5478L158.642 37.2858L157.96 32.4988ZM154.154 36.5388L153.66 40.2288L152.504 37.7428L154.154 36.5388ZM151.619 38.2548L152.888 40.0558L151.743 39.4418L151.751 39.4328L151.74 39.4398L150.477 38.7628L151.619 38.2548ZM148.597 39.5988L148.809 39.5048L149.583 40.8828L149.524 40.9218L148.597 39.5988ZM147.674 43.6428L149.569 41.6868L149.64 41.7978L149.243 43.7118L147.712 43.6978L147.674 43.6428ZM147.079 44.4888L148.6 46.0128L146.756 46.9488L143.982 46.2418L146.724 44.4088L147.079 44.4888ZM145.359 49.1988L147.076 50.0229L145.85 50.4568L145.359 49.1988ZM147.635 50.2898L148.071 50.4988L147.802 51.7938L148.283 50.6008L149.454 51.1628L149.295 51.2698L149.279 51.0908L149.261 51.2918L148.162 52.0288L146.315 51.6469L145.996 50.8298L147.635 50.2898ZM146.326 51.6728L147.753 52.3038L146.818 52.9308L146.326 51.6728ZM149.791 56.8098L149.551 54.1228L151.284 53.8638L151.585 53.9968L150.926 56.9308L149.791 56.8098ZM151.43 56.9838L152.559 54.3088L153.491 54.5018L153.784 57.2348L151.43 56.9838ZM158.78 59.9268L159.569 58.5648L159.745 58.9238L159.279 60.0298L158.78 59.9268ZM160.252 60.3419L160.311 60.0808L160.49 60.4468L160.252 60.3419Z" fill="#FDAB42"/>
<path d="M175.334 55.6918L172.427 52.9648L174.804 56.1648L172.07 59.1778L175.377 56.8078L178.284 59.5348L175.907 56.3348L178.641 53.3218L175.334 55.6918Z" fill="#FDAB42"/>
<path d="M139.269 33.9208L136.662 33.2638L138.822 34.2418L137.848 34.9398L135.652 32.8788L137.448 35.2968L135.383 37.5738L137.881 35.7828L139.691 37.4818L139.366 38.8698L139.921 37.6978L140.077 37.8438L139.94 37.6588L141.107 35.1928L144.972 36.1668L141.341 34.5228L142.268 30.5618L140.527 34.2388L139.576 33.9988L140.346 33.1498L139.269 33.9208ZM140.293 34.9088L139.719 37.3628L138.281 35.4268L139.2 34.4138L140.293 34.9088Z" fill="#FDAB42"/>
<path d="M192.84 16.5178L189.64 19.0308L187.888 16.4328L189.131 19.5258L182.936 26.1008L189.732 20.1428L191.225 23.7238L190.241 19.6478L192.84 16.5178Z" fill="#FDAB42"/>
<path d="M128.558 27.2648L130.597 24.9888L136.662 29.6238L130.908 24.5568L132.423 21.9038L130.384 24.1788L127.81 22.6518L130.072 24.6108L128.558 27.2648Z" fill="#FDAB42"/>
<path d="M186.497 52.9418L184.943 56.7018L181.034 55.9218L184.743 57.3828L184.015 61.3858L185.569 57.6258L189.478 58.4048L185.77 56.9438L186.497 52.9418Z" fill="#FDAB42"/>
<path d="M126.941 39.7246L126.896 39.9018L139.086 43.036L139.132 42.8587L126.941 39.7246Z" fill="#FDAB42"/>
<path d="M144.832 60.4081L137.708 67.548L137.838 67.6773L144.962 60.5374L144.832 60.4081Z" fill="#FDAB42"/>
<path d="M125.88 51.0787L117.576 53.4688L117.627 53.6447L125.931 51.2546L125.88 51.0787Z" fill="#FDAB42"/>
<path d="M188.054 43.4065L179.637 46.664L179.703 46.8347L188.121 43.5772L188.054 43.4065Z" fill="#FDAB42"/>
<path d="M177.526 60.9811L177.418 61.1289L182.052 64.5138L182.16 64.366L177.526 60.9811Z" fill="#FDAB42"/>
<path d="M164.003 14.0199L163.095 26.088L163.278 26.1017L164.186 14.0336L164.003 14.0199Z" fill="#FDAB42"/>
<path d="M134.745 14L134.578 14.0738L137.237 20.108L137.404 20.0342L134.745 14Z" fill="#FDAB42"/>
<path d="M37.875 267.442C40.5779 267.442 42.769 265.251 42.769 262.548C42.769 259.845 40.5779 257.654 37.875 257.654C35.1721 257.654 32.981 259.845 32.981 262.548C32.981 265.251 35.1721 267.442 37.875 267.442Z" fill="#FF4F96"/>
<path d="M37.14 260.418C37.14 260.908 36.742 261.306 36.252 261.306C35.762 261.306 35.364 260.908 35.364 260.418C35.364 259.928 35.762 259.53 36.252 259.53C36.742 259.53 37.14 259.927 37.14 260.418Z" fill="white"/>
<path d="M45.562 271.094C48.2649 271.094 50.456 268.903 50.456 266.2C50.456 263.497 48.2649 261.306 45.562 261.306C42.8591 261.306 40.668 263.497 40.668 266.2C40.668 268.903 42.8591 271.094 45.562 271.094Z" fill="#FF4F96"/>
<path d="M44.827 264.069C44.827 264.559 44.429 264.957 43.939 264.957C43.449 264.957 43.051 264.559 43.051 264.069C43.051 263.578 43.449 263.181 43.939 263.181C44.43 263.181 44.827 263.579 44.827 264.069Z" fill="white"/>
<path d="M53.841 274.368C56.5439 274.368 58.735 272.177 58.735 269.474C58.735 266.771 56.5439 264.58 53.841 264.58C51.1381 264.58 48.947 266.771 48.947 269.474C48.947 272.177 51.1381 274.368 53.841 274.368Z" fill="#FF4F96"/>
<path d="M52.218 268.231C52.7084 268.231 53.106 267.833 53.106 267.343C53.106 266.853 52.7084 266.455 52.218 266.455C51.7276 266.455 51.33 266.853 51.33 267.343C51.33 267.833 51.7276 268.231 52.218 268.231Z" fill="white"/>
<path d="M62.591 277.131C65.2939 277.131 67.485 274.94 67.485 272.237C67.485 269.534 65.2939 267.343 62.591 267.343C59.8881 267.343 57.697 269.534 57.697 272.237C57.697 274.94 59.8881 277.131 62.591 277.131Z" fill="#FF4F96"/>
<path d="M60.968 270.994C61.4584 270.994 61.856 270.596 61.856 270.106C61.856 269.616 61.4584 269.218 60.968 269.218C60.4776 269.218 60.08 269.616 60.08 270.106C60.08 270.596 60.4776 270.994 60.968 270.994Z" fill="white"/>
<path d="M71.341 278.829C74.0439 278.829 76.235 276.638 76.235 273.935C76.235 271.232 74.0439 269.041 71.341 269.041C68.6381 269.041 66.447 271.232 66.447 273.935C66.447 276.638 68.6381 278.829 71.341 278.829Z" fill="#FF4F96"/>
<path d="M69.718 272.692C70.2084 272.692 70.606 272.294 70.606 271.804C70.606 271.314 70.2084 270.916 69.718 270.916C69.2276 270.916 68.83 271.314 68.83 271.804C68.83 272.294 69.2276 272.692 69.718 272.692Z" fill="white"/>
<path d="M80.466 280.782C83.1689 280.782 85.36 278.591 85.36 275.888C85.36 273.185 83.1689 270.994 80.466 270.994C77.7631 270.994 75.572 273.185 75.572 275.888C75.572 278.591 77.7631 280.782 80.466 280.782Z" fill="#FF4F96"/>
<path d="M79.731 273.758C79.731 274.248 79.333 274.646 78.843 274.646C78.353 274.646 77.955 274.248 77.955 273.758C77.955 273.268 78.353 272.87 78.843 272.87C79.333 272.87 79.731 273.267 79.731 273.758Z" fill="white"/>
<path d="M89.591 282.024C92.2939 282.024 94.485 279.833 94.485 277.13C94.485 274.427 92.2939 272.236 89.591 272.236C86.8881 272.236 84.697 274.427 84.697 277.13C84.697 279.833 86.8881 282.024 89.591 282.024Z" fill="#FF4F96"/>
<path d="M87.968 275.888C88.4584 275.888 88.856 275.49 88.856 275C88.856 274.51 88.4584 274.112 87.968 274.112C87.4776 274.112 87.08 274.51 87.08 275C87.08 275.49 87.4776 275.888 87.968 275.888Z" fill="white"/>
<path d="M98.875 283.545C101.578 283.545 103.769 281.354 103.769 278.651C103.769 275.948 101.578 273.757 98.875 273.757C96.1721 273.757 93.981 275.948 93.981 278.651C93.981 281.354 96.1721 283.545 98.875 283.545Z" fill="#FF4F96"/>
<path d="M98.14 276.521C98.14 277.012 97.743 277.409 97.252 277.409C96.762 277.409 96.364 277.011 96.364 276.521C96.364 276.031 96.762 275.633 97.252 275.633C97.742 275.633 98.14 276.03 98.14 276.521Z" fill="white"/>
<path d="M107.875 283.722C110.578 283.722 112.769 281.531 112.769 278.828C112.769 276.125 110.578 273.934 107.875 273.934C105.172 273.934 102.981 276.125 102.981 278.828C102.981 281.531 105.172 283.722 107.875 283.722Z" fill="#FF4F96"/>
<path d="M106.252 277.586C106.742 277.586 107.14 277.188 107.14 276.698C107.14 276.208 106.742 275.81 106.252 275.81C105.762 275.81 105.364 276.208 105.364 276.698C105.364 277.188 105.762 277.586 106.252 277.586Z" fill="white"/>
<path d="M116.458 284.926C119.161 284.926 121.352 282.735 121.352 280.032C121.352 277.329 119.161 275.138 116.458 275.138C113.755 275.138 111.564 277.329 111.564 280.032C111.564 282.735 113.755 284.926 116.458 284.926Z" fill="#FF4F96"/>
<path d="M115.723 277.901C115.723 278.391 115.325 278.789 114.835 278.789C114.345 278.789 113.947 278.391 113.947 277.901C113.947 277.411 114.345 277.013 114.835 277.013C115.326 277.013 115.723 277.411 115.723 277.901Z" fill="white"/>
<path d="M125.292 285.384C127.995 285.384 130.186 283.193 130.186 280.49C130.186 277.787 127.995 275.596 125.292 275.596C122.589 275.596 120.398 277.787 120.398 280.49C120.398 283.193 122.589 285.384 125.292 285.384Z" fill="#FF4F96"/>
<path d="M124.557 278.359C124.557 278.85 124.159 279.247 123.669 279.247C123.179 279.247 122.781 278.85 122.781 278.359C122.781 277.869 123.179 277.471 123.669 277.471C124.159 277.471 124.557 277.869 124.557 278.359Z" fill="white"/>
<path d="M134.125 285.676C136.828 285.676 139.019 283.485 139.019 280.782C139.019 278.079 136.828 275.888 134.125 275.888C131.422 275.888 129.231 278.079 129.231 280.782C129.231 283.485 131.422 285.676 134.125 285.676Z" fill="#FF4F96"/>
<path d="M133.39 278.651C133.39 279.141 132.993 279.539 132.502 279.539C132.012 279.539 131.614 279.141 131.614 278.651C131.614 278.161 132.012 277.763 132.502 277.763C132.992 277.763 133.39 278.161 133.39 278.651Z" fill="white"/>
<path d="M143.863 286.168C146.566 286.168 148.757 283.977 148.757 281.274C148.757 278.571 146.566 276.38 143.863 276.38C141.16 276.38 138.969 278.571 138.969 281.274C138.969 283.977 141.16 286.168 143.863 286.168Z" fill="#FF4F96"/>
<path d="M143.128 279.144C143.128 279.634 142.73 280.032 142.24 280.032C141.75 280.032 141.352 279.634 141.352 279.144C141.352 278.653 141.75 278.256 142.24 278.256C142.731 278.256 143.128 278.653 143.128 279.144Z" fill="white"/>
<path d="M152.644 285.676C155.347 285.676 157.538 283.485 157.538 280.782C157.538 278.079 155.347 275.888 152.644 275.888C149.941 275.888 147.75 278.079 147.75 280.782C147.75 283.485 149.941 285.676 152.644 285.676Z" fill="#FF4F96"/>
<path d="M151.909 278.651C151.909 279.141 151.511 279.539 151.021 279.539C150.531 279.539 150.133 279.141 150.133 278.651C150.133 278.161 150.531 277.763 151.021 277.763C151.511 277.763 151.909 278.161 151.909 278.651Z" fill="white"/>
<path d="M162.102 285.676C164.805 285.676 166.996 283.485 166.996 280.782C166.996 278.079 164.805 275.888 162.102 275.888C159.399 275.888 157.208 278.079 157.208 280.782C157.208 283.485 159.399 285.676 162.102 285.676Z" fill="#FF4F96"/>
<path d="M161.367 278.651C161.367 279.141 160.969 279.539 160.479 279.539C159.989 279.539 159.591 279.141 159.591 278.651C159.591 278.161 159.989 277.763 160.479 277.763C160.969 277.763 161.367 278.161 161.367 278.651Z" fill="white"/>
<path d="M171.289 285.676C173.992 285.676 176.183 283.485 176.183 280.782C176.183 278.079 173.992 275.888 171.289 275.888C168.586 275.888 166.395 278.079 166.395 280.782C166.395 283.485 168.586 285.676 171.289 285.676Z" fill="#FF4F96"/>
<path d="M170.555 278.651C170.555 279.141 170.157 279.539 169.667 279.539C169.177 279.539 168.779 279.141 168.779 278.651C168.779 278.161 169.177 277.763 169.667 277.763C170.157 277.763 170.555 278.161 170.555 278.651Z" fill="white"/>
<path d="M180.294 285.189C182.997 285.189 185.188 282.998 185.188 280.295C185.188 277.592 182.997 275.401 180.294 275.401C177.591 275.401 175.4 277.592 175.4 280.295C175.4 282.998 177.591 285.189 180.294 285.189Z" fill="#FF4F96"/>
<path d="M179.559 278.165C179.559 278.655 179.161 279.053 178.671 279.053C178.181 279.053 177.783 278.655 177.783 278.165C177.783 277.675 178.181 277.277 178.671 277.277C179.161 277.277 179.559 277.674 179.559 278.165Z" fill="white"/>
<path d="M189.731 284.877C192.434 284.877 194.625 282.686 194.625 279.983C194.625 277.28 192.434 275.089 189.731 275.089C187.028 275.089 184.837 277.28 184.837 279.983C184.837 282.686 187.028 284.877 189.731 284.877Z" fill="#FF4F96"/>
<path d="M188.996 277.852C188.996 278.342 188.598 278.74 188.108 278.74C187.618 278.74 187.22 278.342 187.22 277.852C187.22 277.362 187.618 276.964 188.108 276.964C188.599 276.964 188.996 277.362 188.996 277.852Z" fill="white"/>
<path d="M198.71 284.433C201.413 284.433 203.604 282.242 203.604 279.539C203.604 276.836 201.413 274.645 198.71 274.645C196.007 274.645 193.816 276.836 193.816 279.539C193.816 282.242 196.007 284.433 198.71 284.433Z" fill="#FF4F96"/>
<path d="M197.975 277.409C197.975 277.899 197.577 278.297 197.087 278.297C196.596 278.297 196.199 277.899 196.199 277.409C196.199 276.918 196.596 276.521 197.087 276.521C197.577 276.521 197.975 276.918 197.975 277.409Z" fill="white"/>
<path d="M206.585 283.545C209.288 283.545 211.479 281.354 211.479 278.651C211.479 275.948 209.288 273.757 206.585 273.757C203.882 273.757 201.691 275.948 201.691 278.651C201.691 281.354 203.882 283.545 206.585 283.545Z" fill="#FF4F96"/>
<path d="M205.85 276.521C205.85 277.012 205.452 277.409 204.962 277.409C204.471 277.409 204.074 277.011 204.074 276.521C204.074 276.031 204.471 275.633 204.962 275.633C205.452 275.633 205.85 276.03 205.85 276.521Z" fill="white"/>
<path d="M214.335 282.746C217.038 282.746 219.229 280.555 219.229 277.852C219.229 275.149 217.038 272.958 214.335 272.958C211.632 272.958 209.441 275.149 209.441 277.852C209.441 280.555 211.632 282.746 214.335 282.746Z" fill="#FF4F96"/>
<path d="M213.6 275.722C213.6 276.213 213.202 276.61 212.712 276.61C212.221 276.61 211.824 276.212 211.824 275.722C211.824 275.232 212.221 274.834 212.712 274.834C213.202 274.834 213.6 275.231 213.6 275.722Z" fill="white"/>
<path d="M223.835 282.303C226.538 282.303 228.729 280.112 228.729 277.409C228.729 274.706 226.538 272.515 223.835 272.515C221.132 272.515 218.941 274.706 218.941 277.409C218.941 280.112 221.132 282.303 223.835 282.303Z" fill="#FF4F96"/>
<path d="M223.1 275.278C223.1 275.768 222.702 276.166 222.212 276.166C221.721 276.166 221.324 275.768 221.324 275.278C221.324 274.788 221.721 274.39 222.212 274.39C222.702 274.39 223.1 274.788 223.1 275.278Z" fill="white"/>
<path d="M232.898 281.06C235.601 281.06 237.792 278.869 237.792 276.166C237.792 273.463 235.601 271.272 232.898 271.272C230.195 271.272 228.004 273.463 228.004 276.166C228.004 278.869 230.195 281.06 232.898 281.06Z" fill="#FF4F96"/>
<path d="M232.163 274.036C232.163 274.527 231.765 274.924 231.275 274.924C230.784 274.924 230.387 274.526 230.387 274.036C230.387 273.546 230.784 273.148 231.275 273.148C231.765 273.148 232.163 273.545 232.163 274.036Z" fill="white"/>
<path d="M242.148 279.54C244.851 279.54 247.042 277.349 247.042 274.646C247.042 271.943 244.851 269.752 242.148 269.752C239.445 269.752 237.254 271.943 237.254 274.646C237.254 277.349 239.445 279.54 242.148 279.54Z" fill="#FF4F96"/>
<path d="M241.413 272.515C241.413 273.005 241.015 273.403 240.525 273.403C240.034 273.403 239.637 273.005 239.637 272.515C239.637 272.024 240.034 271.627 240.525 271.627C241.015 271.627 241.413 272.025 241.413 272.515Z" fill="white"/>
<path d="M250.648 278.042C253.351 278.042 255.542 275.851 255.542 273.148C255.542 270.445 253.351 268.254 250.648 268.254C247.945 268.254 245.754 270.445 245.754 273.148C245.754 275.851 247.945 278.042 250.648 278.042Z" fill="#FF4F96"/>
<path d="M249.025 271.905C249.515 271.905 249.913 271.507 249.913 271.017C249.913 270.527 249.515 270.129 249.025 270.129C248.535 270.129 248.137 270.527 248.137 271.017C248.137 271.507 248.535 271.905 249.025 271.905Z" fill="white"/>
<path d="M259.644 275.911C262.347 275.911 264.538 273.72 264.538 271.017C264.538 268.314 262.347 266.123 259.644 266.123C256.941 266.123 254.75 268.314 254.75 271.017C254.75 273.72 256.941 275.911 259.644 275.911Z" fill="#FF4F96"/>
<path d="M258.021 269.775C258.511 269.775 258.909 269.377 258.909 268.887C258.909 268.397 258.511 267.999 258.021 267.999C257.531 267.999 257.133 268.397 257.133 268.887C257.133 269.377 257.531 269.775 258.021 269.775Z" fill="white"/>
<path d="M268.519 273.458C271.222 273.458 273.413 271.267 273.413 268.564C273.413 265.861 271.222 263.67 268.519 263.67C265.816 263.67 263.625 265.861 263.625 268.564C263.625 271.267 265.816 273.458 268.519 273.458Z" fill="#FF4F96"/>
<path d="M266.896 267.322C267.386 267.322 267.784 266.924 267.784 266.434C267.784 265.944 267.386 265.546 266.896 265.546C266.406 265.546 266.008 265.944 266.008 266.434C266.008 266.924 266.406 267.322 266.896 267.322Z" fill="white"/>
<path d="M280.85 265.236C280.85 267.939 278.659 270.13 275.956 270.13C273.253 270.13 271.062 267.939 271.062 265.236C271.062 262.533 273.253 260.342 275.956 260.342C278.659 260.342 280.85 262.533 280.85 265.236Z" fill="#FF4F96"/>
<path d="M275.221 263.105C275.221 263.595 274.823 263.993 274.333 263.993C273.843 263.993 273.445 263.595 273.445 263.105C273.445 262.614 273.843 262.217 274.333 262.217C274.824 262.217 275.221 262.615 275.221 263.105Z" fill="white"/>
<path d="M286.427 260.861C286.427 263.564 284.236 265.755 281.533 265.755C278.83 265.755 276.639 263.564 276.639 260.861C276.639 258.158 278.83 255.967 281.533 255.967C284.236 255.967 286.427 258.158 286.427 260.861Z" fill="#FF4F96"/>
<path d="M280.799 258.73C280.799 259.22 280.401 259.618 279.911 259.618C279.421 259.618 279.023 259.22 279.023 258.73C279.023 258.239 279.421 257.842 279.911 257.842C280.401 257.842 280.799 258.24 280.799 258.73Z" fill="white"/>
</svg>
