<svg width="122" height="122" viewBox="0 0 122 122" fill="none" xmlns="http://www.w3.org/2000/svg">
<path d="M50.5919 108.494C50.5919 108.494 56.0247 108.065 56.2439 104.882L59.332 95.913L45.9025 83.4271C45.9025 83.4271 36.0567 83.2365 35.4944 83.2365C34.9225 83.2365 32.2823 95.913 32.2823 95.913L37.0098 103.671L50.5919 108.494Z" fill="#513232"/>
<path d="M50.487 51.2114C50.1916 53.842 49.6292 56.1391 47.7897 58.0739C46.3123 59.618 44.7683 60.9333 43.4053 62.5822C39.4784 67.3383 32.8637 68.9777 28.8034 73.9625C26.0966 77.2889 24.257 81.3683 23.323 85.5049C22.2745 90.1561 21.6264 95.2934 22.9226 99.8684C24.705 106.14 30.1855 106.903 35.9137 107.77C38.5444 108.17 41.2227 108.399 43.8914 108.475C46.0169 108.532 48.4759 108.799 50.6014 108.504C52.46 108.237 52.8126 105.721 52.3075 104.243C51.7737 102.652 50.1725 102.051 48.6761 101.765C47.9422 101.622 47.1702 101.832 46.4267 101.708C45.0447 101.489 44.4633 100.583 44.4347 99.2013C44.4061 97.3141 43.758 95.7414 42.8906 94.0925C42.4998 93.3491 41.8422 92.6914 41.2131 92.1291C40.5745 91.5381 39.4689 90.728 40.0789 89.6986C41.1273 87.9067 44.3108 89.5556 45.3878 90.3277C47.0558 91.5095 48.2377 93.3014 48.7523 95.2744C49.4862 98.0099 50.0486 98.191 52.603 99.1631C54.1089 99.7445 55.5005 100.707 56.0723 102.204C56.7681 104.062 55.6053 106.254 56.8062 107.875C57.7498 109.171 59.5798 109.886 61.2573 109.819C65.5845 109.628 68.482 108.57 67.5766 104.167C67.0047 101.403 67.1858 98.372 67.0142 95.5031C66.957 94.4261 66.8522 92.7772 67.9292 92.0242C68.3486 91.7192 68.93 91.6716 69.4161 91.7002C69.7497 91.7097 70.5884 91.662 70.903 91.7669C71.8275 92.0624 71.6083 93.5492 71.5987 94.3308C71.5892 95.8367 71.6178 97.3713 71.6559 98.8581C71.6941 100.621 71.5034 102.366 71.4844 104.11C71.4748 105.254 71.37 106.664 72.3136 107.474C73.3906 108.428 75.0395 108.637 76.5073 108.685C78.2706 108.752 80.2817 108.618 81.7495 107.589C84.7519 105.473 83.732 100.621 83.4556 97.7906C83.2745 95.9511 83.408 94.0353 83.4556 92.1481C83.4937 90.4516 83.5414 88.7455 83.5795 87.0299C83.5986 86.3245 83.6939 85.562 83.6558 84.8377C83.5128 82.8361 83.9227 80.7869 83.9798 78.7091C84.0752 74.8966 84.2753 71.0174 84.2753 67.1381C84.2753 65.4797 83.9894 63.6592 83.5128 62.0866C83.2555 61.2478 82.9791 60.1231 82.5311 59.3892C81.8258 58.2169 80.6058 57.1685 79.5859 56.2535C78.2706 55.0811 76.7075 54.4902 75.2016 53.5847C73.2477 52.4028 71.208 51.2877 69.092 50.3822C65.3748 48.8 61.4003 47.4466 57.2447 47.2941C55.7864 47.2369 54.6903 47.0081 53.2797 46.6841C51.8595 46.36 51.1542 47.3131 50.8969 48.6475C50.6777 49.4767 50.5823 50.3441 50.487 51.2114ZM65.6417 23.7614C65.6417 23.7614 67.6719 21.2738 72.3994 14.4399C75.3159 10.208 84.5136 -1.70608 89.1648 0.762513C96.3419 4.55595 95.5412 31.4341 95.5412 31.4341L65.6417 23.7614ZM62.6298 24.0855C62.6298 24.0855 60.1231 22.0839 54.0803 16.3652C50.3345 12.8386 38.8684 3.1072 34.8272 6.47173C28.5937 11.6758 34.9702 37.8009 34.9702 37.8009L62.6298 24.0855Z" fill="#FF8139"/>
<path d="M31.1577 49.4481C30.8431 41.1464 34.7128 32.1489 41.5277 26.1061C47.0367 21.207 55.2145 18.1475 63.44 17.2992C71.6655 16.4223 80.2913 17.7186 86.6963 21.35C94.6262 25.8487 100.269 33.8359 101.698 42.0328C103.052 49.8103 102.289 57.8642 95.5698 64.0786C91.8431 67.5194 87.0298 70.1023 81.9592 71.7512C80.0339 72.3803 75.0395 73.8958 69.7116 74.4581C64.3645 75.0205 58.6839 74.6297 56.6633 74.4105C51.3639 73.8481 46.1122 72.3326 41.7564 69.7497C33.8741 65.0603 31.4531 57.34 31.1577 49.4481" fill="#FF8139"/>
<path d="M78.3278 46.3409C78.6519 49.4004 81.1205 51.6498 83.8369 51.3639C86.5533 51.0779 88.5072 48.3711 88.1831 45.302C87.8591 42.2329 85.3905 39.9836 82.6741 40.2695C79.9577 40.565 78.0133 43.2718 78.3278 46.3409ZM55.4051 48.7523C55.7292 51.8118 53.7848 54.5282 51.0684 54.8142C48.352 55.1001 45.8834 52.8507 45.5594 49.7912C45.2353 46.7222 47.1797 44.0057 49.8961 43.7198C52.622 43.4434 55.0811 45.6832 55.4051 48.7523ZM67.9387 61.6576C67.9864 61.6576 68.0436 61.6576 68.0912 61.6481C68.9014 61.5623 69.4923 60.8379 69.4066 60.0182L68.8347 54.5759C68.7489 53.7657 68.015 53.2129 67.2048 53.2606C66.3947 53.3464 65.8037 54.0707 65.8895 54.8904L66.4614 60.3232C66.5472 61.0857 67.1858 61.6576 67.9387 61.6576Z" fill="#513232"/>
<path d="M72.2564 65.2128C73.7528 65.2033 75.2587 64.7458 76.3548 63.907C77.2222 63.2399 78.6042 61.2192 77.1841 60.4472C76.9553 60.3233 76.698 60.2566 76.4406 60.228C76.0308 60.1708 75.6972 60.2756 75.3541 60.533C74.8012 60.9428 74.3342 61.6767 73.648 61.8102C71.5034 62.2486 69.6544 61.1525 69.1397 58.9985C69.0062 58.417 68.9586 58.1406 68.2723 58.0739C66.6044 57.9214 66.2041 60.0183 66.6616 61.2669C67.0714 62.382 67.6052 63.583 68.6441 64.2502C69.7116 64.9269 70.9983 65.2224 72.2564 65.2128Z" fill="#513232"/>
<path d="M64.4503 65.9181C62.973 66.185 61.4098 66.0039 60.1708 65.3843C59.1986 64.8792 57.4639 63.154 58.722 62.1342C59.5131 61.4956 60.2089 61.7529 60.9809 62.2486C62.9444 63.5162 65.6322 62.6203 66.2898 60.3328C66.4328 59.8086 66.2327 58.9793 66.4709 58.5123C66.5853 58.2931 66.7664 58.3408 67.0333 58.2454C67.2144 58.1787 67.3287 58.1025 67.5289 58.0929C68.4534 58.0358 68.9872 59.027 69.1301 59.8086C69.2064 60.2279 69.2922 60.5806 69.2255 61C69.0253 62.1818 68.7203 63.4495 67.8148 64.2978C66.8998 65.1747 65.6894 65.6894 64.4503 65.9181Z" fill="#513232"/>
<path d="M72.4375 54.9286C72.4661 55.9484 71.8847 57.0731 70.903 57.8356C70.1023 58.4552 68.9205 58.8555 67.7481 58.9698C66.5758 59.0938 65.3367 58.9508 64.4312 58.5219C63.3066 57.9786 62.5059 57.0064 62.3248 55.9961C62.1437 55.043 62.2677 54.0327 63.2494 53.2511C63.7831 52.8127 64.4789 52.4886 65.2128 52.2789C65.4797 52.1931 66.2041 51.993 66.9666 51.9167C67.7386 51.8309 68.5487 51.8691 68.8347 51.8977C69.5877 51.9548 70.3406 52.1359 70.9602 52.4409C72.0753 53.0033 72.4089 53.9469 72.4375 54.9286Z" fill="#513232"/>
<path d="M28.9369 94.5976C27.7741 93.8256 26.5541 94.1687 25.2578 94.3212C19.6725 94.9694 13.3438 99.8684 13.115 105.702C12.8386 113.193 19.5009 118.607 26.1347 120.389C30.967 121.685 36.1997 121.685 41.175 121.485C43.3481 121.4 47.275 121.762 49.1908 120.542C49.877 120.113 50.4775 119.217 50.792 118.483C51.9453 115.805 49.6197 113.937 47.132 113.946C45.3211 113.956 43.5102 113.984 41.6897 113.965C37.7247 113.937 33.7406 114.232 29.8233 113.45C26.2586 112.745 21.0355 109.952 21.2547 105.606C21.4167 102.413 24.9623 101.784 27.5167 101.403C28.1648 101.308 28.8034 101.098 29.5469 101.079C31.0052 101.041 30.9384 99.6683 30.8336 98.6008C30.6811 97.0853 30.4428 95.8177 29.1752 94.7787C29.1275 94.7216 29.0322 94.6548 28.9369 94.5976ZM99.3633 47.3894C99.4586 47.3894 99.5539 47.3798 99.6492 47.3608L107.484 45.8262C108.285 45.6737 108.809 44.8922 108.647 44.0916C108.494 43.2909 107.694 42.7572 106.912 42.9287L99.0773 44.4728C98.2767 44.6253 97.7525 45.4069 97.9145 46.198C98.0575 46.8937 98.677 47.3894 99.3633 47.3894ZM107.417 53.3941C108.151 53.3941 108.78 52.8508 108.875 52.1073C108.99 51.2972 108.418 50.5633 107.608 50.4489L99.6873 49.41C98.8962 49.2956 98.1433 49.8675 98.0289 50.6776C97.9241 51.4878 98.4959 52.2312 99.2966 52.3361L107.217 53.375C107.284 53.3941 107.341 53.3941 107.417 53.3941ZM105.082 60.0659C105.721 60.0659 106.312 59.6466 106.502 58.9889C106.731 58.2073 106.273 57.3972 105.482 57.1684L97.8097 54.9762C97.0281 54.757 96.2084 55.205 95.9797 55.9961C95.7605 56.7776 96.2084 57.5973 96.9995 57.8166L104.672 60.0087C104.815 60.0469 104.949 60.0659 105.082 60.0659ZM34.5889 53.0986C35.3323 53.0986 35.9709 52.5362 36.0567 51.7833C36.0995 51.394 35.986 51.0037 35.7412 50.6981C35.4963 50.3925 35.1402 50.1966 34.7509 50.1534L26.8114 49.267C26.0203 49.2003 25.2673 49.7626 25.1816 50.5728C25.0862 51.3925 25.6772 52.1169 26.4873 52.2026L34.4269 53.0891C34.4841 53.0891 34.5412 53.0986 34.5889 53.0986ZM27.0783 59.7609C27.1831 59.7609 27.288 59.7514 27.4023 59.7228L35.1989 58.0167C35.5799 57.9321 35.912 57.7002 36.1227 57.3716C36.3334 57.0431 36.4056 56.6445 36.3236 56.263C36.1425 55.4719 35.3609 54.9667 34.5698 55.1383L26.7637 56.8444C25.9727 57.0159 25.458 57.807 25.6391 58.5981C25.782 59.2844 26.4016 59.7609 27.0783 59.7609ZM29.9472 66.2041C30.1187 66.2041 30.2998 66.1755 30.4714 66.1087L37.9344 63.2875C38.6969 63.0016 39.0877 62.1437 38.7922 61.3812C38.5062 60.6187 37.6484 60.2375 36.8859 60.5234L29.4134 63.3447C28.6509 63.6401 28.2697 64.4884 28.5556 65.2509C28.7844 65.8419 29.3467 66.2041 29.9472 66.2041Z" fill="#FF8139"/>
<path d="M87.6875 11.9331C88.3833 13.744 89.7844 18.9576 88.9075 22.6653C88.6502 23.7709 87.2395 24.2665 86.2387 23.7899C84.1514 22.7892 80.8917 21.0259 79.6717 20.4159C77.5939 19.396 76.8791 18.1284 78.0038 16.5748C79.4334 14.5923 82.9981 10.4843 85.1045 10.084C86.3055 9.85526 87.23 10.7607 87.6875 11.9331ZM38.5063 16.9465C38.1155 18.8528 37.6198 24.2189 39.1067 27.7454C39.5452 28.7843 41.0225 29.0417 41.928 28.4031C43.8152 27.0687 46.7222 24.7812 47.8373 23.9806C49.7055 22.6271 50.2106 21.2546 48.8381 19.9107C47.1034 18.1951 42.9002 14.7353 40.7556 14.6971C39.5261 14.6685 38.7541 15.717 38.5063 16.9465Z" fill="#FCD4B5"/>
</svg>
