<svg width="128" height="128" viewBox="0 0 128 128" fill="none" xmlns="http://www.w3.org/2000/svg">
<path d="M35.84 48.65C35.84 48.65 41.68 40.27 41.26 37.04C40.84 33.8 39.71 33.1 36.47 31.97C33.23 30.84 31.33 29.08 31.33 29.08C31.33 29.08 28.98 18.05 29.22 16.69C29.5 15.07 35.34 4.16003 49.21 4.16003C62.58 4.16003 68.07 15.38 67.37 24.01C66.74 31.82 63.85 34.01 61.81 40.48C59.77 46.96 58.78 50.83 58.78 50.83L46.74 53.29L36.67 51.11L35.84 48.65Z" fill="#F2EEE9"/>
<path d="M53.25 96.5099C53.25 96.5099 54 104.15 53.23 105.08C52.45 106.01 40.79 108.71 39.47 109.7C38.04 110.77 38.65 113.17 41.69 115.94C44.73 118.71 47.28 119.19 49.03 118.47C51.09 117.63 54.66 114.9 56.26 113.68C57.54 112.7 59.46 110.62 59.72 108.95C59.99 107.28 59.16 97.4699 59.16 97.4699L53.25 96.5099ZM68.45 99.1899C68.45 99.1899 69.55 108.11 69.01 109.19C67.6 112.01 59.54 118.35 59.01 120.45C58.59 122.14 62.81 125.52 67.03 125.61C72.67 125.74 76.2 123.51 76.6 122.28C77.16 120.54 75.05 110.31 74.77 109.75C74.49 109.19 74.91 94.6899 74.91 94.6899L68.45 99.1899Z" fill="#FFBF18"/>
<path d="M98.66 54.49C98.66 54.49 103.46 53.55 103.48 50.29C103.49 47.03 101.74 48.45 101.72 46.08C101.7 43.71 105.96 43.15 108.76 45.14C110.97 46.71 116.02 51.82 115.74 62.43C115.36 76.84 107.82 87.38 95.95 93.9C86.27 99.21 71.99 98.58 71.99 98.58L98.66 54.49Z" fill="#DDD7D0"/>
<path d="M85.67 55.6901C88.02 55.4101 98.33 52.1501 102 53.0901C106.43 54.2201 110.85 57.3401 109.95 67.2401C108.79 80.0901 99.66 87.9201 95.73 90.0701C88.7 93.9101 81.94 94.0001 81.94 94.0001C81.94 94.0001 83.33 55.9701 85.67 55.6901Z" fill="#F2EEE9"/>
<path d="M7.12 25.07C7.12 26.27 14.58 29.79 21.62 30.63C28.66 31.47 33.02 30.35 33.02 30.35C33.02 30.35 31.82 27.32 31.82 25.07C31.82 22.82 32.98 17.17 31.19 15.85C29.57 14.65 28.23 17.12 27.25 17.82C26.26 18.52 23.45 20.49 19.08 20.64C14.71 20.79 10.91 20.08 9.37 20.92C7.83 21.76 7.12 23.8 7.12 25.07Z" fill="#FFBF18"/>
<path d="M50.2 20.7699C49.78 22.5199 48.59 23.8899 46.26 23.5199C44.08 23.1699 43.02 20.9199 43.66 18.7299C44.16 16.9999 45.45 15.8299 47.63 16.1999C50.13 16.6199 50.6 19.0799 50.2 20.7699Z" fill="#513232"/>
<path d="M33.16 51.6C33.16 51.6 35.32 61.03 46.11 59.44C53.82 58.3 59.53 54.47 59.53 54.47L59.62 48.18C59.62 48.18 54.5 51.18 48.36 51.09C41.98 51 36.44 47.71 36.44 47.71L33.16 51.6Z" fill="#F2EEE9"/>
<path d="M26.03 69.11C25.28 89.56 40.7 99.28 65.17 99.7C92.29 100.17 102.78 84.26 104.4 74.27C106.09 63.82 99.33 61.6 99.33 61.6C99.33 61.6 106.09 58.78 103.06 52.1C101.65 51.82 94.71 53.67 81.52 52.31C68.42 50.96 59.44 53.25 59.44 53.25C59.44 53.25 56.16 56.82 46.77 56.35C35.52 55.79 33.35 51.38 33.35 51.38C33.35 51.38 26.5 56.39 26.03 69.11Z" fill="#F2EEE9"/>
<path d="M53 72C53.6367 74.6842 56.5281 80.2421 63 81" stroke="#513232" stroke-width="2"/>
<path d="M70 57C85.3643 57 110.415 66.9474 85.3643 67.7126C93.0465 65.8543 102.109 75.6704 75.1214 77.7692C88.3704 75.3718 93.7145 80.2834 72.1154 84" stroke="#513232" stroke-width="2"/>
</svg>
